<?xml version="1.0" encoding="utf-8"?>
<!-- Generator: Adobe Illustrator 27.3.1, SVG Export Plug-In . SVG Version: 6.00 Build 0)  -->
<svg version="1.1" id="Layer_1" xmlns="http://www.w3.org/2000/svg" xmlns:xlink="http://www.w3.org/1999/xlink" x="0px" y="0px"
	 viewBox="0 0 367.8 161.7" style="enable-background:new 0 0 367.8 161.7;" xml:space="preserve">
<style type="text/css">
	.st0{fill-rule:evenodd;clip-rule:evenodd;fill:#635BFF;}
</style>
<g>
	<path class="st0" d="M363.1,83.8c0-25.6-12.4-45.8-36.1-45.8c-23.8,0-38.2,20.2-38.2,45.6c0,30.1,17,45.3,41.4,45.3
		c11.9,0,20.9-2.7,27.7-6.5v-20c-6.8,3.4-14.6,5.5-24.5,5.5c-9.7,0-18.3-3.4-19.4-15.2h48.9C362.9,91.4,363.1,86.2,363.1,83.8z
		 M313.7,74.3c0-11.3,6.9-16,13.2-16c6.1,0,12.6,4.7,12.6,16H313.7z"/>
	<path class="st0" d="M250.2,38c-9.8,0-16.1,4.6-19.6,7.8l-1.3-6.2h-22v116.6l25-5.3l0.1-28.3c3.6,2.6,8.9,6.3,17.7,6.3
		c17.9,0,34.2-14.4,34.2-46.1C284.2,53.8,267.7,38,250.2,38z M244.2,106.9c-5.9,0-9.4-2.1-11.8-4.7l-0.1-37.1
		c2.6-2.9,6.2-4.9,11.9-4.9c9.1,0,15.4,10.2,15.4,23.3C259.6,96.9,253.4,106.9,244.2,106.9z"/>
	<polygon class="st0" points="172.9,32.1 198,26.7 198,6.4 172.9,11.7 	"/>
	<rect x="172.9" y="39.7" class="st0" width="25.1" height="87.5"/>
	<path class="st0" d="M146,47.1l-1.6-7.4h-21.6v87.5h25V67.9c5.9-7.7,15.9-6.3,19-5.2v-23C163.6,38.5,151.9,36.3,146,47.1z"/>
	<path class="st0" d="M96,18l-24.4,5.2l-0.1,80.1c0,14.8,11.1,25.7,25.9,25.7c8.2,0,14.2-1.5,17.5-3.3v-20.3c-3.2,1.3-19,5.9-19-8.9
		V61h19V39.7h-19L96,18z"/>
	<path class="st0" d="M28.4,65.1c0-3.9,3.2-5.4,8.5-5.4c7.6,0,17.2,2.3,24.8,6.4V42.6C53.4,39.3,45.2,38,36.9,38
		C16.6,38,3.1,48.6,3.1,66.3c0,27.6,38,23.2,38,35.1c0,4.6-4,6.1-9.6,6.1c-8.3,0-18.9-3.4-27.3-8v23.8c9.3,4,18.7,5.7,27.3,5.7
		c20.8,0,35.1-10.3,35.1-28.2C66.5,71,28.4,76.3,28.4,65.1z"/>
</g>
</svg>
