<svg width="56" height="56" viewBox="0 0 56 56" fill="none" xmlns="http://www.w3.org/2000/svg">
<path d="M25.0389 47.4394C24.3388 48.1393 23.3894 48.5325 22.3995 48.5325C21.4095 48.5325 20.4601 48.1393 19.76 47.4394L2.96002 30.6394C2.26012 29.9393 1.86695 28.9899 1.86695 27.9999C1.86695 27.01 2.26012 26.0606 2.96002 25.3605L19.76 8.56047C20.4641 7.88041 21.4072 7.50411 22.386 7.51262C23.3649 7.52112 24.3013 7.91375 24.9935 8.60594C25.6857 9.29813 26.0783 10.2345 26.0868 11.2134C26.0953 12.1922 25.719 13.1353 25.0389 13.8394L14.9328 24.2666L50.3995 24.2666C51.3896 24.2666 52.3392 24.6599 53.0393 25.3601C53.7395 26.0602 54.1328 27.0098 54.1328 27.9999C54.1328 28.9901 53.7395 29.9397 53.0393 30.6398C52.3392 31.3399 51.3896 31.7333 50.3995 31.7333L14.9328 31.7333L25.0389 42.1605C25.7388 42.8606 26.132 43.81 26.132 44.7999C26.132 45.7899 25.7388 46.7393 25.0389 47.4394Z" fill="white"/>
</svg>
