<svg width="56" height="56" viewBox="0 0 56 56" fill="none" xmlns="http://www.w3.org/2000/svg">
<path d="M30.9611 8.5606C31.6612 7.86071 32.6106 7.46753 33.6005 7.46753C34.5905 7.46753 35.5399 7.86071 36.24 8.5606L53.04 25.3606C53.7399 26.0607 54.1331 27.0101 54.1331 28.0001C54.1331 28.99 53.7399 29.9394 53.04 30.6395L36.24 47.4395C35.5359 48.1196 34.5928 48.4959 33.614 48.4874C32.6351 48.4789 31.6987 48.0862 31.0065 47.3941C30.3143 46.7019 29.9217 45.7655 29.9132 44.7866C29.9047 43.8078 30.281 42.8647 30.9611 42.1606L41.0672 31.7334L5.60052 31.7334C4.61038 31.7334 3.66079 31.3401 2.96066 30.6399C2.26052 29.9398 1.86719 28.9902 1.86719 28.0001C1.86719 27.0099 2.26052 26.0603 2.96066 25.3602C3.66079 24.6601 4.61038 24.2667 5.60052 24.2667L41.0672 24.2667L30.9611 13.8395C30.2612 13.1394 29.868 12.19 29.868 11.2001C29.868 10.2101 30.2612 9.2607 30.9611 8.5606Z" fill="white"/>
</svg>
