<svg width="1920" height="230" viewBox="0 0 1920 230" fill="none" xmlns="http://www.w3.org/2000/svg">
<g clip-path="url(#clip0_59_1313)">
<path fill-rule="evenodd" clip-rule="evenodd" d="M-69.9999 201.538L12.0834 162.196C94.1668 122.854 251.833 18.8169 416 28.6523C580.167 38.4878 755.333 152.361 919.5 162.196C1083.67 172.032 1243.33 89.5581 1407.5 60.0517C1571.67 30.5453 1744.92 65.7026 1827 75.538L1909.08 85.3735L1900 1561.54H1817.92C1735.83 1561.54 1571.67 1561.54 1407.5 1561.54C1243.33 1561.54 1079.17 1561.54 915 1561.54C750.833 1561.54 586.667 1561.54 422.5 1561.54C258.333 1561.54 94.1667 1561.54 12.0833 1561.54H-70L-69.9999 201.538Z" fill="#FCD205"/>
<path fill-rule="evenodd" clip-rule="evenodd" d="M-52.9999 209.886L29.0834 170.544C111.167 131.202 268.833 27.1645 433 37C597.167 46.8355 772.333 160.708 936.5 170.544C1100.67 180.379 1260.33 97.9057 1424.5 68.3994C1588.67 38.893 1761.92 74.0502 1844 83.8857L1926.08 93.7211L1917 1569.89H1834.92C1752.83 1569.89 1588.67 1569.89 1424.5 1569.89C1260.33 1569.89 1096.17 1569.89 932 1569.89C767.833 1569.89 603.667 1569.89 439.5 1569.89C275.333 1569.89 111.167 1569.89 29.0833 1569.89H-53L-52.9999 209.886Z" fill="#F72585"/>
<path fill-rule="evenodd" clip-rule="evenodd" d="M0 205.718L75.6252 169.46C157.25 130.325 320.5 52.0548 483.75 61.8386C647 71.6223 810.251 169.46 973.5 179.244C1136.75 189.027 1300 110.757 1463.25 81.4061C1626.5 52.0548 1789.75 71.6223 1871.38 81.4061L1920 87.2343L1920 1975.04L1871.37 1979C1789.75 1979 1626.5 1979 1463.25 1979C1300 1979 1136.75 1979 973.5 1979C810.25 1979 647 1979 483.75 1979C320.5 1979 157.25 1979 75.6253 1979L2.03475e-05 1976.12L0 205.718Z" fill="white"/>
</g>
<defs>
<clipPath id="clip0_59_1313">
<rect width="1920" height="230" fill="white"/>
</clipPath>
</defs>
</svg>
