<svg width="89" height="89" viewBox="0 0 89 89" fill="none" xmlns="http://www.w3.org/2000/svg">
<g clip-path="url(#clip0_56_733)">
<path d="M44.6658 69.1926L44.6477 66.4044C45.5162 66.3989 46.3929 66.3398 47.2523 66.2285L47.6104 68.9931C46.6377 69.1189 45.6469 69.1864 44.6658 69.1926ZM41.7211 69.0334C40.7408 68.9208 39.7631 68.7462 38.814 68.5161L39.4725 65.8072C40.3097 66.0109 41.1739 66.1645 42.0403 66.2654L41.7211 69.0334ZM50.5099 68.4347L49.8125 65.7355C50.6545 65.5179 51.4896 65.2467 52.2948 64.9297L53.3176 67.5225C52.406 67.882 51.4618 68.1886 50.5099 68.4347ZM35.9932 67.6435C35.0767 67.2972 34.1707 66.8898 33.3002 66.4322L34.5984 63.9646C35.3674 64.3693 36.1684 64.7301 36.9784 65.0354L35.9932 67.6435ZM55.989 66.2751L54.6588 63.8248C55.4181 63.4132 56.1621 62.9473 56.8706 62.4418L58.4907 64.7113C57.6897 65.2829 56.8484 65.8085 55.989 66.2751ZM30.7776 64.9005C29.9738 64.3428 29.1944 63.7296 28.4594 63.0781L30.3111 60.9935C30.9626 61.572 31.6537 62.115 32.3657 62.6094L30.7776 64.9005ZM60.7831 62.8576L58.9044 60.7981C59.5441 60.2141 60.1567 59.5834 60.7254 58.9236L62.8371 60.7432C62.196 61.4879 61.5049 62.1992 60.7831 62.8576ZM26.3777 60.9907C25.7283 60.2579 25.1171 59.4784 24.5608 58.6739L26.8526 57.0872C27.3469 57.8006 27.8893 58.4932 28.465 59.144L26.3777 60.9907ZM64.6233 58.3986L62.3107 56.8432C62.7954 56.1215 63.2425 55.3636 63.6395 54.589L66.1204 55.8607C65.674 56.7326 65.1706 57.5865 64.6233 58.3986ZM23.0304 56.1562C22.5722 55.2913 22.162 54.388 21.8102 53.4737L24.412 52.4738C24.7242 53.2853 25.0886 54.0856 25.4946 54.8539L23.0304 56.1562ZM67.3052 53.1594L64.6901 52.1943C64.9912 51.3787 65.2463 50.5353 65.4494 49.6884L68.1604 50.3378C67.9316 51.2925 67.6445 52.2416 67.3052 53.1594ZM20.9181 50.6639C20.6775 49.7148 20.4919 48.7414 20.3646 47.7708L23.1299 47.4099C23.2418 48.2721 23.4066 49.1363 23.6208 49.9791L20.9181 50.6639ZM68.6756 47.437L65.9069 47.1144C66.0077 46.2543 66.0585 45.3747 66.0585 44.5C66.0585 44.2998 66.0557 44.0995 66.0508 43.9006L68.8376 43.8283C68.8439 44.0515 68.8467 44.2761 68.8467 44.5C68.846 45.4818 68.7883 46.4705 68.6756 47.437ZM20.1546 44.8365L20.1525 44.5042C20.1525 43.6309 20.197 42.7548 20.286 41.8961L23.059 42.1832C22.9797 42.9474 22.9394 43.7268 22.9394 44.4993L22.9421 44.8004L20.1546 44.8365ZM65.829 41.2946C65.7039 40.4296 65.5265 39.5675 65.3027 38.7317L67.9956 38.01C68.248 38.9507 68.4469 39.9214 68.5887 40.8948L65.829 41.2946ZM23.481 39.6022L20.7609 38.991C20.9765 38.0336 21.2511 37.0803 21.5779 36.1576L24.2055 37.088C23.9156 37.907 23.6722 38.7525 23.481 39.6022ZM64.4759 36.2508C64.154 35.4463 63.7785 34.6502 63.3607 33.8854L65.8082 32.549C66.2789 33.4112 66.7009 34.3074 67.0639 35.2148L64.4759 36.2508ZM25.2235 34.6773L22.7252 33.4417C23.1591 32.5636 23.6507 31.7028 24.1867 30.8816L26.5209 32.405C26.046 33.1337 25.6094 33.8986 25.2235 34.6773ZM61.9742 31.6701C61.4715 30.9644 60.9187 30.2795 60.3333 29.6349L62.3956 27.7597C63.0568 28.4856 63.6791 29.2567 64.2451 30.0528L61.9742 31.6701ZM28.0798 30.3052L25.9431 28.5148C26.5717 27.7638 27.2538 27.0435 27.9679 26.3725L29.8758 28.4056C29.2424 28.9994 28.6381 29.6391 28.0798 30.3052ZM58.4601 27.809C57.8044 27.2423 57.107 26.7083 56.386 26.2237L57.9421 23.9104C58.7563 24.4583 59.5448 25.0605 60.2853 25.7022L58.4601 27.809ZM31.8846 26.7341L30.2346 24.4868C31.0265 23.9055 31.8602 23.3681 32.7127 22.889L34.079 25.3184C33.3245 25.7426 32.5861 26.2195 31.8846 26.7341ZM54.1359 24.9005C53.3586 24.5056 52.552 24.1565 51.7392 23.8617L52.6876 21.2404C53.6082 21.5735 54.5198 21.9684 55.3972 22.4141L54.1359 24.9005ZM36.427 24.1823L35.3688 21.6034C36.2782 21.23 37.2183 20.9101 38.1639 20.6522L38.8975 23.3423C38.061 23.569 37.2301 23.8527 36.427 24.1823ZM49.2354 23.1261C48.392 22.9342 47.5256 22.7923 46.6613 22.7047L46.9408 19.9311C47.9192 20.0306 48.8989 20.1905 49.8549 20.4081L49.2354 23.1261ZM41.45 22.8125L41.0543 20.0528C42.0236 19.9138 43.0116 19.8331 43.9941 19.8129L44.0504 22.6004C43.182 22.6178 42.3073 22.6894 41.45 22.8125Z" fill="white"/>
<path d="M50.6462 9.67319L45.0267 3.97162L39.4064 9.67319L37.4206 7.71658L45.0267 0L52.632 7.71658L50.6462 9.67319Z" fill="white"/>
<path d="M46.4215 3.31525H43.6333V14.6718H46.4215V3.31525Z" fill="white"/>
<path d="M16.6468 23.5502L13.8593 23.5495L13.8627 12.6658L24.606 12.6623L24.6067 15.4505L16.6489 15.4533L16.6468 23.5502Z" fill="white"/>
<path d="M25.0873 22.05L17.1757 14.0211L15.1896 15.9782L23.1012 24.007L25.0873 22.05Z" fill="white"/>
<path d="M8.2342 51.6555L0.660156 43.9646L8.2342 36.2724L10.2207 38.2283L4.57268 43.9646L10.22 49.6995L8.2342 51.6555Z" fill="white"/>
<path d="M15.1136 42.5698H3.92534V45.3573H15.1136V42.5698Z" fill="white"/>
<path d="M23.8593 75.5812L13.1139 75.5756L13.1125 64.6926H15.9L15.9014 72.7895L23.8606 72.793L23.8593 75.5812Z" fill="white"/>
<path d="M24.3365 66.1895L22.3499 64.234L14.4418 72.2684L16.4285 74.2238L24.3365 66.1895Z" fill="white"/>
<path d="M64.3904 76.3398L64.389 73.5515L72.3455 73.5474L72.3504 65.4491L75.1379 65.4505L75.1323 76.3342L64.3904 76.3398Z" fill="white"/>
<path d="M73.8092 73.0168L65.8964 64.9902L63.9115 66.947L71.8242 74.9736L73.8092 73.0168Z" fill="white"/>
<path d="M80.7636 52.7269L78.7778 50.771L84.4258 45.0361L78.7778 39.3011L80.7636 37.3452L88.3391 45.0361L80.7636 52.7269Z" fill="white"/>
<path d="M85.0711 43.6434H73.8842V46.4316H85.0711V43.6434Z" fill="white"/>
<path d="M43.9698 89L36.3645 81.2841L38.3496 79.3268L43.9698 85.0291L49.5921 79.3268L51.5772 81.2841L43.9698 89Z" fill="white"/>
<path d="M45.3625 74.3289H42.5743V85.6854H45.3625V74.3289Z" fill="white"/>
<path d="M73.0964 24.3095L73.0929 16.2105L65.1358 16.207L65.1372 13.4195L75.8798 13.4244L75.8846 24.3081L73.0964 24.3095Z" fill="white"/>
<path d="M74.5505 16.7321L72.5647 14.7761L64.6558 22.8056L66.6416 24.7616L74.5505 16.7321Z" fill="white"/>
<path d="M44.4968 62.2006C34.8702 62.2006 27.0389 54.2601 27.0389 44.5C27.0389 34.7406 34.8709 26.8001 44.4968 26.8001C54.1227 26.8001 61.9547 34.7406 61.9547 44.5C61.9547 54.2601 54.1227 62.2006 44.4968 62.2006ZM44.4968 29.5883C36.4076 29.5883 29.8257 36.2779 29.8257 44.5C29.8257 52.7228 36.4076 59.4124 44.4968 59.4124C52.5861 59.4124 59.1672 52.7228 59.1672 44.5C59.1672 36.2779 52.5861 29.5883 44.4968 29.5883Z" fill="white"/>
<path d="M44.4982 49.7121C40.617 49.7121 37.4603 46.5171 37.4603 42.5914C37.4603 38.6642 40.617 35.47 44.4982 35.47C48.3781 35.47 51.5355 38.6642 51.5355 42.5914C51.5355 46.5171 48.3781 49.7121 44.4982 49.7121ZM44.4982 38.2575C42.155 38.2575 40.2478 40.2009 40.2478 42.5907C40.2478 44.9805 42.155 46.9232 44.4982 46.9232C46.8414 46.9232 48.748 44.9798 48.748 42.5907C48.748 40.2009 46.8414 38.2575 44.4982 38.2575Z" fill="white"/>
<path d="M55.7692 56.0603H52.9817V55.5937C52.9817 53.2032 51.0752 51.2598 48.732 51.2598H40.2665C37.9233 51.2598 36.0168 53.2039 36.0168 55.5937V56.0603H33.2293V55.5937C33.2293 51.6666 36.386 48.4716 40.2665 48.4716H48.732C52.6118 48.4716 55.7692 51.6666 55.7692 55.5937V56.0603Z" fill="white"/>
</g>
<defs>
<clipPath id="clip0_56_733">
<rect width="89" height="89" fill="white"/>
</clipPath>
</defs>
</svg>
