<svg width="89" height="89" viewBox="0 0 89 89" fill="none" xmlns="http://www.w3.org/2000/svg">
<g id="reshot-icon-launch-VCNGX76Q4T 1" clip-path="url(#clip0_56_749)">
<g id="Vector">
<path d="M34.4395 88.6768C15.4491 88.6768 0 73.4481 0 54.7303C0 37.9294 12.7047 23.4801 29.5529 21.1202L29.9395 23.8799C14.4597 26.0486 2.78751 39.311 2.78751 54.7303C2.78751 71.9107 16.9865 85.89 34.4395 85.89C51.8912 85.89 66.0901 71.9114 66.0901 54.7303C66.0901 39.4035 54.4972 26.1529 39.1238 23.9078L39.5264 21.1501C56.2584 23.5935 68.8763 38.0295 68.8763 54.7303C68.877 73.4495 53.4285 88.6768 34.4395 88.6768Z" fill="white"/>
<path d="M39.6502 16.8086H29.2212C28.4612 16.8086 27.7478 16.5131 27.2138 15.9763C26.6861 15.4465 26.3975 14.7449 26.401 13.9996L26.3975 7.32942C26.4045 5.77679 27.6707 4.51896 29.2212 4.51896L39.6509 4.52383C40.415 4.52383 41.1305 4.82003 41.6652 5.35821C42.1923 5.88873 42.4801 6.591 42.4766 7.33637L42.4808 14.0044C42.4718 15.555 41.2021 16.8086 39.6502 16.8086ZM29.2205 7.30647L29.1878 14.0051L39.6502 14.0218C39.6829 14.0218 39.694 14.0058 39.694 13.9982L39.6898 7.33011L29.2205 7.30647Z" fill="white"/>
<path d="M9.78374 26.8927L7.41273 23.453C7.06577 22.9538 6.93644 22.3461 7.05116 21.7453C7.16659 21.1425 7.51216 20.6231 8.0246 20.2824L13.391 16.6897C14.4277 15.9993 15.8434 16.2684 16.5505 17.2898L18.9215 20.7267L16.6277 22.3092L14.5355 19.277L10.0076 22.3078L12.0769 25.3102L9.78374 26.8927Z" fill="white"/>
<path d="M34.4388 75.0584C23.0712 75.0584 13.8235 65.9394 13.8235 54.7303C13.8235 43.519 23.0719 34.3993 34.4388 34.3993C45.8058 34.3993 55.0541 43.519 55.0541 54.7303C55.0541 65.9394 45.8058 75.0584 34.4388 75.0584ZM34.4388 37.1861C24.6078 37.1861 16.6096 45.0571 16.6096 54.7303C16.6096 64.4021 24.6078 72.2723 34.4388 72.2723C44.2692 72.2723 52.2666 64.4028 52.2666 54.7303C52.2666 45.0571 44.2692 37.1861 34.4388 37.1861Z" fill="white"/>
<path d="M34.4388 66.9678C27.6004 66.9678 22.0365 61.4783 22.0365 54.7303C22.0365 47.9809 27.6004 42.4907 34.4388 42.4907C41.2772 42.4907 46.8411 47.9809 46.8411 54.7303C46.8411 61.4783 41.2772 66.9678 34.4388 66.9678ZM34.4388 45.2768C29.1371 45.2768 24.8227 49.5182 24.8227 54.7303C24.8227 59.9409 29.1364 64.1809 34.4388 64.1809C39.7413 64.1809 44.0543 59.9409 44.0543 54.7303C44.0543 49.5182 39.7406 45.2768 34.4388 45.2768Z" fill="white"/>
<path d="M35.5659 27.4219H32.7791V32.0144H35.5659V27.4219Z" fill="white"/>
<path d="M23.8813 34.4818L21.5514 30.5078L19.1472 31.9174L21.4771 35.8914L23.8813 34.4818Z" fill="white"/>
<path d="M15.0301 42.3875L10.9931 40.0881L9.61395 42.5096L13.6509 44.8089L15.0301 42.3875Z" fill="white"/>
<path d="M11.3816 53.5976H6.7202V56.3844H11.3816V53.5976Z" fill="white"/>
<path d="M15.2898 67.5223L13.9123 65.0998L9.87407 67.396L11.2516 69.8185L15.2898 67.5223Z" fill="white"/>
<path d="M24.3424 75.2318L21.9385 73.8222L19.6061 77.8L22.01 79.2095L24.3424 75.2318Z" fill="white"/>
<path d="M36.0971 77.444H33.3103V82.0366H36.0971V77.444Z" fill="white"/>
<path d="M49.7338 77.5462L47.4065 73.5686L45.0006 74.9763L47.3279 78.9539L49.7338 77.5462Z" fill="white"/>
<path d="M59.2658 66.9492L55.2323 64.6501L53.853 67.0701L57.8865 69.3691L59.2658 66.9492Z" fill="white"/>
<path d="M62.1547 53.0754H57.494V55.8622H62.1547V53.0754Z" fill="white"/>
<path d="M58.9936 42.062L57.6167 39.6392L53.5798 41.9335L54.9567 44.3563L58.9936 42.062Z" fill="white"/>
<path d="M49.273 31.6578L46.8694 30.2474L44.5374 34.2216L46.941 35.632L49.273 31.6578Z" fill="white"/>
<path d="M34.4402 59.2143C34.4395 59.2143 34.4395 59.2143 34.4402 59.2143C31.9246 59.2143 29.879 57.1896 29.879 54.7004C29.8769 53.4947 30.3525 52.3579 31.2202 51.5033C32.0803 50.6543 33.222 50.1871 34.4347 50.1857C36.9489 50.1899 38.9938 52.2146 38.9973 54.6983C38.9938 57.191 36.9496 59.2143 34.4402 59.2143ZM34.434 52.9732C33.9611 52.9732 33.5127 53.1568 33.1761 53.4877C32.8459 53.8138 32.6644 54.2428 32.6658 54.6976C32.6658 55.6522 33.4612 56.4275 34.4388 56.4275H34.4402C35.415 56.4275 36.2091 55.6522 36.2105 54.699C36.2091 53.7513 35.4123 52.9746 34.434 52.9732Z" fill="white"/>
<path d="M35.8322 15.2351H33.0454V24.1518H35.8322V15.2351Z" fill="white"/>
<path d="M63.9771 26.9198L60.4658 16.5493L76.9342 0.322754L80.4449 10.6982L63.9771 26.9198ZM63.6649 17.3099L65.1897 21.8135L77.2457 9.93893L75.7195 5.43121L63.6649 17.3099Z" fill="white"/>
<path d="M72.5065 28.4356L61.9767 24.9778L78.4723 8.72978L89 12.1855L72.5065 28.4356ZM67.1894 23.7555L71.7604 25.2574L83.7879 13.4078L79.2183 11.9074L67.1894 23.7555Z" fill="white"/>
<path d="M63.9771 26.9198L60.4658 16.5493L76.9342 0.322754L80.4449 10.6982L63.9771 26.9198ZM63.6649 17.3099L65.1897 21.8135L77.2457 9.93893L75.7195 5.43121L63.6649 17.3099Z" fill="white"/>
<path d="M72.5065 28.4356L61.9767 24.9778L78.4723 8.72978L89 12.1855L72.5065 28.4356ZM67.1894 23.7555L71.7604 25.2574L83.7879 13.4078L79.2183 11.9074L67.1894 23.7555Z" fill="white"/>
<path d="M81.9772 9.258L80.0209 7.27245L35.8229 50.8189L37.7792 52.8045L81.9772 9.258Z" fill="white"/>
</g>
</g>
<defs>
<clipPath id="clip0_56_749">
<rect width="89" height="89" fill="white"/>
</clipPath>
</defs>
</svg>
