<svg width="89" height="89" viewBox="0 0 89 89" fill="none" xmlns="http://www.w3.org/2000/svg">
<g id="reshot-icon-green-innovation-FUJVK8MCGY 1">
<g id="Vector">
<path d="M15.5432 66.6005C15.2164 66.257 14.8951 65.9087 14.5815 65.5561L16.6647 63.7031C16.9574 64.0327 17.2571 64.3567 17.561 64.6766L15.5432 66.6005Z" fill="white"/>
<path d="M75.3143 64.5445L73.1686 62.7652C73.494 62.373 73.8104 61.9746 74.1184 61.5713L76.335 63.2623C76.0055 63.6955 75.6641 64.1238 75.3143 64.5445ZM12.7438 63.3332C12.1514 62.5614 11.5806 61.757 11.0466 60.9434L13.378 59.4138C13.8744 60.171 14.4063 60.9177 14.957 61.6353L12.7438 63.3332ZM78.026 60.8697L75.6919 59.3456C76.1855 58.5898 76.657 57.8041 77.0936 57.0121L79.5363 58.3562C79.0655 59.2093 78.5573 60.0548 78.026 60.8697ZM9.5301 58.4355C9.05799 57.5844 8.61229 56.7048 8.20414 55.8211L10.7358 54.6516C11.1147 55.4734 11.5298 56.2904 11.9686 57.0817L9.5301 58.4355ZM80.8525 55.7363L78.3167 54.5779C78.6935 53.7553 79.0433 52.9084 79.3569 52.0594L81.9719 53.0273C81.6333 53.941 81.2572 54.8525 80.8525 55.7363ZM7.07565 53.1135C6.73495 52.2006 6.42414 51.2647 6.15297 50.3302L8.83131 49.5528C9.08302 50.4206 9.37088 51.2897 9.68724 52.1373L7.07565 53.1135ZM82.8856 50.2412L80.2058 49.4715C80.4548 48.6044 80.6745 47.7151 80.8574 46.8279L83.5885 47.3932C83.3904 48.3486 83.154 49.3067 82.8856 50.2412ZM5.44236 47.4843C5.24211 46.5331 5.07593 45.561 4.9473 44.5939L7.71047 44.226C7.83006 45.1244 7.98512 46.0269 8.17077 46.9107L5.44236 47.4843ZM84.0739 44.5L81.3086 44.1405C81.4247 43.245 81.5089 42.3327 81.5575 41.4288L84.3416 41.579C84.2894 42.5524 84.199 43.5356 84.0739 44.5ZM4.67195 41.6743C4.62954 40.9463 4.60938 40.2071 4.60938 39.4778C4.60938 39.2316 4.61146 38.9862 4.61633 38.7414L7.40384 38.7936C7.39966 39.0209 7.39758 39.2497 7.39758 39.4778C7.39758 40.155 7.41635 40.8406 7.45529 41.5164L4.67195 41.6743ZM81.6027 38.706C81.584 37.7972 81.5304 36.8829 81.4435 35.9866L84.2192 35.7217C84.3117 36.6854 84.3694 37.6692 84.3902 38.6462L81.6027 38.706ZM7.55541 36.0749L4.77973 35.8155C4.87012 34.8449 4.99875 33.8666 5.16215 32.9091L7.91072 33.3764C7.75914 34.265 7.63955 35.1731 7.55541 36.0749ZM81.0833 33.2895C80.929 32.396 80.7398 31.5004 80.5194 30.6264L83.2235 29.9464C83.4606 30.8879 83.6643 31.853 83.8305 32.8153L81.0833 33.2895ZM8.46766 30.712L5.76151 30.0382C5.99722 29.094 6.27117 28.1462 6.57711 27.2222L9.22416 28.0976C8.93978 28.9556 8.6853 29.8352 8.46766 30.712ZM79.7574 28.0148C79.4702 27.1554 79.1476 26.2988 78.7999 25.4679L81.3712 24.3902C81.7453 25.2843 82.0922 26.2063 82.4009 27.1304L79.7574 28.0148ZM10.1767 25.5444L7.60339 24.4722C7.97747 23.5739 8.39118 22.6783 8.8334 21.8085L11.3191 23.0705C10.9082 23.8777 10.5244 24.7107 10.1767 25.5444ZM77.6554 23.0009C77.2452 22.1979 76.7988 21.3982 76.3274 20.6237L78.7102 19.1753C79.2164 20.0083 79.6969 20.8684 80.1391 21.732L77.6554 23.0009ZM12.643 20.6883L10.2574 19.2435C10.7622 18.4112 11.3038 17.5872 11.8684 16.7939L14.14 18.4105C13.6144 19.1489 13.111 19.9151 12.643 20.6883ZM74.8248 18.3507C74.3019 17.6185 73.7415 16.8926 73.1602 16.1945L75.3032 14.4104C75.9276 15.1613 76.5311 15.9421 77.0936 16.7299L74.8248 18.3507ZM15.8018 16.2508L13.6547 14.4715C14.2763 13.722 14.9334 12.987 15.6078 12.2855L17.6173 14.2184C16.9894 14.87 16.3789 15.5534 15.8018 16.2508ZM71.342 14.1663C70.712 13.5141 70.0515 12.8772 69.3777 12.275L71.2377 10.1975C71.9615 10.8448 72.6714 11.529 73.348 12.2299L71.342 14.1663ZM19.5753 12.3237L17.7118 10.2496C18.435 9.60018 19.1915 8.96884 19.9605 8.37295L21.6675 10.5778C20.9527 11.132 20.2483 11.7188 19.5753 12.3237ZM67.2814 10.5319C66.5638 9.97913 65.8177 9.44582 65.0619 8.94659L66.5993 6.62007C67.41 7.15616 68.2124 7.72909 68.9835 8.32359L67.2814 10.5319ZM23.882 8.989L22.3405 6.66596C23.1492 6.12918 23.9891 5.61465 24.8381 5.13766L26.2058 7.56709C25.4159 8.01139 24.6351 8.48977 23.882 8.989ZM62.734 7.52815C61.9428 7.08593 61.1258 6.66666 60.306 6.28354L61.4859 3.75747C62.3683 4.16979 63.2458 4.61966 64.0955 5.09525L62.734 7.52815ZM28.6255 6.3183L27.4393 3.79571C28.3209 3.3813 29.2262 2.99541 30.1322 2.64845L31.13 5.25239C30.288 5.57432 29.4452 5.9338 28.6255 6.3183ZM57.7938 5.21971C56.9456 4.89709 56.0771 4.60227 55.2128 4.34431L56.0104 1.67292C56.9393 1.95035 57.8738 2.26672 58.7847 2.61368L57.7938 5.21971ZM33.7082 4.37143L32.9051 1.70212C33.8361 1.42191 34.7901 1.1723 35.7392 0.960922L36.3448 3.68237C35.4618 3.87845 34.5746 4.10999 33.7082 4.37143ZM52.5748 3.66152C51.6925 3.46683 50.7906 3.30273 49.8937 3.17341L50.2928 0.413711C51.2565 0.552773 52.2251 0.729383 53.1742 0.937977L52.5748 3.66152ZM39.0246 3.18662L38.6192 0.429008C39.5822 0.287164 40.5612 0.180086 41.5312 0.109164L41.7335 2.88972C40.8317 2.95508 39.9201 3.0552 39.0246 3.18662ZM47.1834 2.88277C46.2982 2.82019 45.3964 2.78751 44.5022 2.78751L44.4668 0.582672L44.4737 0C45.4527 0.00278125 46.431 0.0340703 47.3808 0.101516L47.1834 2.88277Z" fill="white"/>
<path d="M73.4015 66.6826L71.3907 64.751C71.6966 64.4325 71.9963 64.1092 72.2904 63.7817L74.3659 65.641C74.0523 65.9928 73.7297 66.3412 73.4015 66.6826Z" fill="white"/>
<path d="M45.8963 68.0252H43.1081V88.5188H45.8963V68.0252Z" fill="white"/>
<path d="M58.0532 89H49.9326V74.6682C49.9326 69.6189 54.0795 65.5117 59.1768 65.5117H67.3001V79.8441C67.3001 84.8928 63.1519 89 58.0532 89ZM52.7208 86.2118H58.0532C61.6146 86.2118 64.5119 83.3555 64.5119 79.8441V68.2999H59.1768C55.6175 68.2999 52.7208 71.1569 52.7208 74.6682V86.2118Z" fill="white"/>
<path d="M39.2408 85.0159H29.6212C24.5252 85.0159 20.3791 80.9073 20.3791 75.8572V69.2865H29.9945C32.465 69.2865 34.7839 70.2377 36.5277 71.9642C38.2771 73.6948 39.2387 75.997 39.2373 78.4459L39.2408 85.0159ZM23.1666 72.074V75.8565C23.1666 79.3692 26.0619 82.227 29.6205 82.227H36.4505L36.4491 78.4452C36.4498 76.7451 35.7816 75.1473 34.5662 73.9451C33.3473 72.738 31.7245 72.074 29.998 72.074H23.1666Z" fill="white"/>
<path d="M54.6524 56.9162H33.2583L33.1714 55.6153C33.0303 53.4946 32.554 51.8015 31.8309 50.8475C24.3806 41.3669 24.1727 32.2535 24.1727 32.1638C24.1727 21.3558 33.056 12.5629 43.9745 12.5629C54.8937 12.5629 63.7777 21.3558 63.7777 32.1638C63.7777 32.2528 63.5684 41.3579 56.1014 50.8663C55.3915 51.7994 54.9062 53.4953 54.7477 55.6264L54.6524 56.9162ZM35.8233 54.1287H52.1027C52.3947 52.0115 52.9955 50.3448 53.8952 49.1614C60.7698 40.4081 60.9895 32.2437 60.9895 32.1638C60.9895 22.8932 53.3563 15.3511 43.9738 15.3511C34.5926 15.3511 26.9595 22.8932 26.9595 32.1638C26.9595 32.2437 27.1744 40.4095 34.0378 49.144C35.1037 50.5506 35.5995 52.462 35.8233 54.1287Z" fill="white"/>
<path d="M41.6963 55.2823L38.9701 35.2741L36.2076 35.6505L38.9338 55.6587L41.6963 55.2823Z" fill="white"/>
<path d="M51.7542 35.6512L48.9917 35.2737L46.2574 55.2818L49.0199 55.6594L51.7542 35.6512Z" fill="white"/>
<path d="M47.4156 39.2817L46.0729 38.4056L44.7331 39.281H43.209L41.8684 38.4063L40.5313 39.281L39.0058 39.2803L36.9059 37.9077L38.4315 35.575L39.7679 36.4483L41.1056 35.5743H42.6305L43.9703 36.449L45.3095 35.5743L46.8322 35.5736L48.177 36.4497L49.5203 35.5736L51.043 37.9091L48.939 39.2817H47.4156Z" fill="white"/>
<path d="M56.8635 54.3421H31.0869V57.1304H56.8635V54.3421Z" fill="white"/>
<path d="M56.8635 60.7641H31.0869V63.5523H56.8635V60.7641Z" fill="white"/>
<path d="M49.1838 67.1359H38.7687V69.9241H49.1838V67.1359Z" fill="white"/>
<path d="M36.1793 55.9817H33.3911V60.8113H36.1793V55.9817Z" fill="white"/>
</g>
</g>
</svg>
