<svg width="89" height="89" viewBox="0 0 89 89" fill="none" xmlns="http://www.w3.org/2000/svg">
<g id="reshot-icon-group-K5VNH2WUFG 1">
<g id="Vector">
<path d="M75.974 52.3563L73.2358 51.8661C73.3916 50.9977 73.5084 50.1133 73.5828 49.2372L76.3543 49.4736C76.2723 50.4345 76.1443 51.4052 75.974 52.3563ZM73.6864 46.5866C73.6801 45.7022 73.6329 44.8115 73.5459 43.9396L76.3133 43.6642C76.4085 44.6203 76.4607 45.5972 76.4676 46.5665L73.6864 46.5866ZM73.1614 41.3182C72.9925 40.4519 72.7811 39.5862 72.5336 38.7442L75.2022 37.9592C75.474 38.8833 75.7063 39.8345 75.8912 40.7856L73.1614 41.3182ZM71.6686 36.2418C71.3397 35.4206 70.9705 34.6085 70.5714 33.829L73.0474 32.5615C73.4854 33.4174 73.8908 34.3081 74.2503 35.2085L71.6686 36.2418ZM69.2559 31.5283C68.7837 30.785 68.2713 30.0549 67.7331 29.3575L69.9331 27.6567C70.5241 28.4209 71.0859 29.2212 71.6039 30.0361L69.2559 31.5283ZM66.0143 27.3362C65.4156 26.693 64.778 26.068 64.1196 25.4797L65.9733 23.407C66.6943 24.0516 67.3931 24.7364 68.0495 25.4408L66.0143 27.3362ZM62.0635 23.8047C61.3543 23.2791 60.6138 22.7805 59.8629 22.3237L61.3077 19.9471C62.1317 20.4484 62.9438 20.9943 63.7205 21.5707L62.0635 23.8047ZM57.535 21.0499C56.7423 20.6619 55.9239 20.3073 55.1014 19.9944L56.0887 17.3946C56.9912 17.7374 57.8889 18.1268 58.7573 18.5516L57.535 21.0499ZM52.5816 19.167C51.7326 18.9306 50.8634 18.731 49.9964 18.5732L50.4949 15.8364C51.444 16.0096 52.3973 16.2279 53.3269 16.4872L52.5816 19.167ZM47.3674 18.2172C46.4934 18.1386 45.6013 18.099 44.7162 18.099V15.3177C45.6848 15.3177 46.661 15.3615 47.6163 15.4471L47.3674 18.2172Z" fill="white"/>
<path d="M15.7884 59.8706C15.3837 58.9931 15.0166 58.0857 14.6954 57.1735L17.3188 56.2501C17.6108 57.081 17.946 57.9077 18.3145 58.7066L15.7884 59.8706ZM13.8596 54.3867C13.6253 53.4494 13.4334 52.4891 13.2881 51.5331L16.038 51.1145C16.1694 51.985 16.3447 52.859 16.5581 53.7122L13.8596 54.3867ZM12.9842 48.6406C12.9481 48.0287 12.9307 47.4078 12.9307 46.7952C12.9307 46.4399 12.9369 46.0867 12.9481 45.7342L15.7279 45.8267C15.7168 46.1486 15.7119 46.4719 15.7119 46.7959C15.7119 47.355 15.7279 47.9216 15.7606 48.48L12.9842 48.6406ZM15.9386 43.1831L13.1796 42.8333C13.3013 41.871 13.4695 40.9066 13.6802 39.9652L16.394 40.5722C16.2028 41.4288 16.0499 42.307 15.9386 43.1831Z" fill="white"/>
<path d="M44.7155 78.2908C44.3727 78.2908 44.0313 78.2852 43.6913 78.2748L43.7782 75.4949C44.6933 75.5221 45.6041 75.5095 46.4308 75.4609L46.5991 78.2366C45.9963 78.2727 45.3802 78.2908 44.7155 78.2908ZM40.7925 78.0537C39.8365 77.9369 38.8721 77.7749 37.9272 77.5712L38.5119 74.8525C39.3755 75.0381 40.2565 75.1862 41.1305 75.2933L40.7925 78.0537ZM35.1139 76.8286C34.1954 76.54 33.2762 76.2056 32.3827 75.8322L33.4528 73.2658C34.2691 73.6058 35.1077 73.9117 35.9469 74.1752L35.1139 76.8286ZM29.7538 74.591C28.925 74.153 28.1052 73.6711 27.3167 73.1594L28.8311 70.8266C29.55 71.2939 30.2982 71.7333 31.054 72.1331L29.7538 74.591Z" fill="white"/>
<path d="M24.8664 42.9571C12.9196 42.9571 3.20117 33.3215 3.20117 21.4775C3.20117 9.63495 12.9196 0 24.8664 0C36.8126 0 46.531 9.63495 46.531 21.4775C46.531 33.3215 36.8119 42.9571 24.8664 42.9571ZM24.8664 2.78125C14.4534 2.78125 5.98242 11.1688 5.98242 21.4775C5.98242 31.7876 14.4541 40.1758 24.8664 40.1758C35.2787 40.1758 43.7497 31.7876 43.7497 21.4775C43.7497 11.1688 35.2787 2.78125 24.8664 2.78125Z" fill="white"/>
<path d="M24.8664 26.5039C21.0644 26.5039 17.9724 23.4341 17.9724 19.6607C17.9724 15.8872 21.0644 12.8174 24.8664 12.8174C28.6677 12.8174 31.7597 15.8872 31.7597 19.6607C31.7597 23.4341 28.667 26.5039 24.8664 26.5039ZM24.8664 15.5986C22.5983 15.5986 20.7536 17.4211 20.7536 19.6607C20.7536 21.901 22.5983 23.7227 24.8664 23.7227C27.1338 23.7227 28.9785 21.9003 28.9785 19.6607C28.9785 17.4211 27.1331 15.5986 24.8664 15.5986Z" fill="white"/>
<path d="M24.8671 36.805C20.924 36.805 17.1665 35.3233 14.2851 32.6324L13.8436 32.2201V31.1723C13.8436 27.3988 16.9371 24.329 20.739 24.329H28.9931C32.7944 24.329 35.8871 27.3988 35.8885 31.1716V32.2201L35.447 32.6324C32.5642 35.3233 28.8074 36.805 24.8671 36.805ZM16.629 30.997C18.9284 32.9529 21.8307 34.0244 24.8671 34.0244C27.9008 34.0244 30.803 32.9536 33.1045 30.997C33.0099 28.8388 31.2021 27.1109 28.9938 27.1109H20.739C18.53 27.1102 16.7222 28.8381 16.629 30.997Z" fill="white"/>
<path d="M65.2084 89C53.8547 89 44.6182 79.842 44.6182 68.5863C44.6182 57.3299 53.8547 48.1712 65.2084 48.1712C76.5622 48.1712 85.7987 57.3299 85.7987 68.5863C85.7987 79.842 76.5622 89 65.2084 89ZM65.2084 50.9518C55.3885 50.9518 47.3994 58.8624 47.3994 68.5856C47.3994 78.3089 55.3885 86.2188 65.2084 86.2188C75.0283 86.2188 83.0175 78.3089 83.0175 68.5863C83.0175 58.8624 75.0283 50.9518 65.2084 50.9518Z" fill="white"/>
<path d="M65.2084 73.676C61.355 73.676 58.2199 70.5631 58.2199 66.7375C58.2199 62.9112 61.355 59.799 65.2084 59.799C69.064 59.7997 72.2005 62.9126 72.2005 66.7375C72.2005 70.5624 69.064 73.676 65.2084 73.676ZM65.2084 62.5802C62.8889 62.5802 61.0011 64.4457 61.0011 66.7375C61.0011 69.0292 62.8889 70.8948 65.2084 70.8948C67.5301 70.8948 69.4193 69.0299 69.4193 66.7375C69.4193 64.4464 67.5301 62.5809 65.2084 62.5802Z" fill="white"/>
<path d="M76.3995 84.8511H73.6182V78.4479C73.6182 76.1562 71.7305 74.2921 69.4095 74.2921H61.0108C58.6892 74.2921 56.8007 76.1562 56.8007 78.4479V84.8511H54.0195V78.4479C54.0195 74.623 57.156 71.5108 61.0108 71.5108H69.4095C73.2636 71.5108 76.3995 74.623 76.3995 78.4479V84.8511Z" fill="white"/>
<path d="M34.9241 46.7542H32.1429V57.7353H34.9241V46.7542Z" fill="white"/>
<path d="M39.0723 50.8559H27.9905V53.6371H39.0723V50.8559Z" fill="white"/>
<path d="M78.9638 3.98205H76.1826V16.6979H78.9638V3.98205Z" fill="white"/>
<path d="M83.9916 8.95006H71.1589V11.7313H83.9916V8.95006Z" fill="white"/>
<path d="M22.7047 76.9718C17.1325 76.9718 12.599 72.4745 12.599 66.9475C12.599 61.4211 17.1331 56.9245 22.7047 56.9245C28.2755 56.9245 32.8076 61.4211 32.8076 66.9475C32.8083 72.4745 28.2755 76.9718 22.7047 76.9718ZM22.7047 59.7058C18.6656 59.7058 15.3803 62.9543 15.3803 66.9475C15.3803 70.9413 18.6663 74.1905 22.7047 74.1905C26.7424 74.1905 30.0263 70.9413 30.0263 66.9475C30.027 62.9543 26.7424 59.7058 22.7047 59.7058Z" fill="white"/>
</g>
</g>
</svg>
