<svg width="89" height="89" viewBox="0 0 89 89" fill="none" xmlns="http://www.w3.org/2000/svg">
<g id="reshot-icon-premium-product-LYQWHK428A 1" clip-path="url(#clip0_56_757)">
<g id="Vector">
<path d="M23.3984 17.2306C22.9276 17.2306 22.4527 17.1958 21.9876 17.127L20.9905 16.9796L20.8202 15.9867C20.2966 12.9301 21.2603 9.7852 23.3984 7.57411C25.2194 5.68772 27.6655 4.64893 30.2847 4.64893C30.7555 4.64893 31.229 4.68369 31.6941 4.75253L32.6912 4.89993L32.8616 5.89214C33.3865 8.94943 32.4228 12.095 30.2834 14.3075C28.4644 16.1925 26.0183 17.2306 23.3984 17.2306ZM30.2215 7.42948C28.3872 7.44547 26.6754 8.18181 25.3974 9.50568C24.1194 10.8268 23.4304 12.6179 23.4603 14.4507C25.2959 14.4341 27.007 13.6991 28.2843 12.3759C29.5637 11.0541 30.2528 9.26163 30.2215 7.42948Z" fill="white"/>
<path d="M14.6388 27.3863L13.7669 26.8669C11.1803 25.3268 9.47057 22.6144 9.19314 19.6121C8.91502 16.6104 10.0984 13.6275 12.3596 11.6333L13.1203 10.9624L13.9908 11.4825C16.5753 13.0254 18.2837 15.7371 18.5618 18.7367C18.8399 21.7355 17.6565 24.7177 15.3974 26.714L14.6388 27.3863ZM13.4478 14.4994C12.3457 15.8483 11.7985 17.5984 11.9619 19.3569C12.1239 21.1139 12.9805 22.7305 14.3086 23.8507C15.4106 22.4997 15.9578 20.751 15.7951 18.9932C15.6317 17.2376 14.7751 15.621 13.4478 14.4994Z" fill="white"/>
<path d="M10.7812 42.1569L9.77651 42.0588C6.7818 41.7661 4.09094 40.0341 2.57933 37.4273C1.06911 34.8255 0.890414 31.6194 2.10095 28.8521L2.50563 27.9266L3.51035 28.026C6.50506 28.3208 9.19453 30.0529 10.7068 32.6575C12.2157 35.2587 12.3944 38.4648 11.1859 41.2328L10.7812 42.1569ZM4.29605 30.9853C3.86009 32.6818 4.0972 34.5049 4.98372 36.0325C5.86607 37.5539 7.31788 38.6518 8.98872 39.1003C9.42398 37.403 9.18758 35.5799 8.30245 34.0523C7.4194 32.5323 5.96759 31.4344 4.29605 30.9853Z" fill="white"/>
<path d="M9.37809 58.0733C7.46877 58.0733 5.62688 57.4934 4.05339 56.3962C1.59407 54.6801 0.0866328 51.8488 0.0205781 48.8221L-0.000976562 47.8188L0.944648 47.4823C1.95841 47.1214 3.01668 46.9392 4.09024 46.9392C6.00096 46.9392 7.84215 47.5198 9.41564 48.6163C11.8764 50.3358 13.3831 53.1664 13.4471 56.1911L13.4686 57.1937L12.5237 57.5302C11.5099 57.8904 10.4517 58.0733 9.37809 58.0733ZM2.90821 49.8262C3.22319 51.5533 4.20149 53.1087 5.64427 54.1148C6.74912 54.886 8.04101 55.2927 9.37879 55.2927C9.7772 55.2927 10.1721 55.2572 10.5615 55.1863C10.2472 53.4599 9.26893 51.9044 7.82546 50.8955C6.39312 49.8978 4.60616 49.5147 2.90821 49.8262Z" fill="white"/>
<path d="M14.9336 73.0948C14.4052 73.0948 13.8726 73.0489 13.3483 72.9585C10.3932 72.4509 7.83659 70.5242 6.50993 67.8062L6.07188 66.9093L6.78249 66.2084C8.55484 64.4576 10.8876 63.4939 13.3504 63.4939C13.8775 63.4939 14.4101 63.5391 14.9329 63.6295C17.8866 64.1378 20.4419 66.0638 21.77 68.7811L22.2087 69.6773L21.4988 70.3796C19.7285 72.1297 17.3971 73.0948 14.9336 73.0948ZM9.54775 67.5003C10.5539 68.9306 12.0898 69.9214 13.8198 70.219C15.5566 70.5152 17.3262 70.0994 18.7335 69.0877C17.7267 67.6568 16.1908 66.6666 14.4622 66.3683C12.7288 66.0714 10.9571 66.4893 9.54775 67.5003Z" fill="white"/>
<path d="M26.2373 84.3505C24.1104 84.3505 22.0203 83.6058 20.3515 82.2528L19.5755 81.6242L19.9239 80.6876C20.9801 77.8535 23.3337 75.6848 26.2213 74.8852C29.1041 74.0905 32.2629 74.7622 34.5866 76.643L35.3633 77.2708L35.0157 78.2074C33.963 81.0436 31.6072 83.2137 28.7147 84.0126C27.9047 84.2365 27.071 84.3505 26.2373 84.3505ZM22.9784 80.6939C23.9706 81.264 25.097 81.5707 26.2373 81.5707C26.8207 81.5707 27.4055 81.4914 27.9756 81.3335C29.6687 80.8656 31.101 79.7274 31.9618 78.2046C30.4607 77.3432 28.6452 77.1033 26.9619 77.565C25.2722 78.0329 23.8406 79.1711 22.9784 80.6939Z" fill="white"/>
<path d="M39.474 78.4098C21.2234 75.2009 8.42482 58.7136 9.7035 40.0584C10.3689 30.3658 14.739 21.513 22.0105 15.1315L23.8441 17.2209C17.128 23.115 13.0911 31.2926 12.4764 40.2482C11.2958 57.4809 23.1091 72.7103 39.9552 75.6716L39.474 78.4098Z" fill="white"/>
<path d="M65.6038 17.2327C62.9839 17.2327 60.5378 16.1939 58.7147 14.3075C56.5759 12.095 55.6129 8.94943 56.1392 5.89354L56.3096 4.90132L57.306 4.75461C57.7705 4.68578 58.244 4.65171 58.7133 4.65171C61.3325 4.65171 63.7786 5.68981 65.6011 7.5755C67.7419 9.79215 68.7049 12.9377 68.1758 15.9923L68.0041 16.9838L67.0084 17.1298C66.5446 17.1979 66.0725 17.2327 65.6038 17.2327ZM58.778 7.43157C58.7467 9.26232 59.435 11.0541 60.713 12.3759C61.9924 13.6998 63.7029 14.4354 65.5371 14.4528C65.5691 12.6221 64.88 10.8309 63.6013 9.50707C62.3234 8.18389 60.6122 7.44825 58.778 7.43157Z" fill="white"/>
<path d="M74.3606 27.3884L73.5999 26.7168C71.3409 24.7205 70.1581 21.7376 70.4342 18.7373C70.7109 15.7364 72.4214 13.0247 75.0093 11.4838L75.8813 10.9651L76.6405 11.6361C78.8975 13.6289 80.0809 16.6104 79.8063 19.6127C79.5289 22.6158 77.8184 25.3282 75.2318 26.869L74.3606 27.3884ZM75.5517 14.5001C74.2229 15.621 73.3642 17.2369 73.2029 18.9925C73.0409 20.751 73.5881 22.5011 74.6902 23.8521C76.0189 22.7312 76.8763 21.1146 77.039 19.3576C77.1996 17.5991 76.6524 15.8497 75.5517 14.5001Z" fill="white"/>
<path d="M78.2196 42.1603L77.8149 41.2342C76.6058 38.4648 76.7852 35.258 78.294 32.6575C79.8056 30.0529 82.4951 28.3208 85.4891 28.026L86.4952 27.9266L86.8992 28.8535C88.1069 31.6236 87.9282 34.829 86.4208 37.428C84.9092 40.0341 82.219 41.7661 79.2243 42.0616L78.2196 42.1603ZM84.702 30.9853C83.0318 31.4345 81.5807 32.5323 80.6977 34.0523C79.8126 35.5792 79.5755 37.4023 80.0114 39.101C81.6822 38.6511 83.1341 37.5532 84.0164 36.0326C84.9008 34.507 85.1379 32.6839 84.702 30.9853Z" fill="white"/>
<path d="M79.6207 58.0733C78.5471 58.0733 77.4888 57.8904 76.4751 57.5309L75.5301 57.1944L75.551 56.1917C75.6163 53.1678 77.1238 50.3379 79.5831 48.6205C81.1573 47.5226 82.9985 46.9427 84.9092 46.9427C85.9821 46.9427 87.0403 47.1256 88.0534 47.485L88.999 47.8209L88.9775 48.8249C88.9114 51.8502 87.4033 54.6808 84.9447 56.3962C83.3719 57.4934 81.5314 58.0733 79.6207 58.0733ZM78.4379 55.1863C80.1387 55.4964 81.9214 55.114 83.3538 54.1155C84.7965 53.1094 85.7756 51.5547 86.0898 49.8282C84.3926 49.5174 82.6056 49.9006 81.174 50.899C79.7305 51.9065 78.7522 53.4613 78.4379 55.1863Z" fill="white"/>
<path d="M74.0644 73.0948C71.6016 73.0948 69.2695 72.1297 67.5007 70.3796L66.7907 69.6766L67.2295 68.7804C68.5568 66.0659 71.1128 64.1406 74.0665 63.6316C74.5908 63.5412 75.1241 63.496 75.6511 63.496C78.1146 63.496 80.446 64.4604 82.2176 66.2105L82.9289 66.9128L82.4888 67.8097C81.158 70.5284 78.6013 72.4537 75.6497 72.9592C75.1268 73.0496 74.5928 73.0948 74.0644 73.0948ZM70.2666 69.0884C71.6739 70.1001 73.4393 70.5194 75.1797 70.219C76.9075 69.9228 78.4442 68.932 79.4524 67.5017C78.0444 66.4907 76.2748 66.0728 74.5386 66.3704C72.8094 66.6694 71.2734 67.6602 70.2666 69.0884Z" fill="white"/>
<path d="M62.7635 84.3505C61.9298 84.3505 61.0947 84.2365 60.2833 84.0126C57.3943 83.2158 55.0379 81.0464 53.9824 78.2095L53.6333 77.2736L54.41 76.6451C56.7337 74.7622 59.896 74.0912 62.776 74.8866C65.6643 75.6848 68.0194 77.8542 69.0748 80.6911L69.4239 81.6284L68.6472 82.2562C66.9771 83.6065 64.8877 84.3505 62.7635 84.3505ZM57.0362 78.2046C57.8977 79.7281 59.33 80.8663 61.0217 81.3335C62.7051 81.7973 64.5178 81.5567 66.0203 80.6959C65.1575 79.1725 63.7251 78.0336 62.0348 77.5663C60.3528 77.1019 58.5374 77.3425 57.0362 78.2046Z" fill="white"/>
<path d="M49.5254 78.4112L49.0443 75.673C65.8903 72.7096 77.703 57.4816 76.523 40.2503C75.9077 31.2954 71.8707 23.1171 65.1561 17.2216L66.9903 15.1328C74.2598 21.5151 78.6305 30.3678 79.2959 40.0598C80.5739 58.7129 67.776 75.2002 49.5254 78.4112Z" fill="white"/>
<path d="M55.7735 58.165L44.499 49.9075L33.2252 58.165L37.5299 44.8046L26.2763 36.561H40.1874L44.499 23.1853L48.8107 36.561H62.7197L51.4668 44.8046L55.7735 58.165ZM34.7758 39.3409L40.7916 43.747L38.502 50.8545L44.499 46.4615L50.4961 50.8538L48.205 43.747L54.2209 39.3402H46.7852L44.499 32.2459L42.2121 39.3409H34.7758Z" fill="white"/>
</g>
</g>
<defs>
<clipPath id="clip0_56_757">
<rect width="89" height="89" fill="white" transform="translate(-0.000976562)"/>
</clipPath>
</defs>
</svg>
