<svg width="89" height="89" viewBox="0 0 89 89" fill="none" xmlns="http://www.w3.org/2000/svg">
<path d="M44.3637 0H41.5824V5.37407H44.3637V0Z" fill="white"/>
<path d="M32.1487 7.8785L30.2982 2.83082L27.6869 3.78813L29.5374 8.8358L32.1487 7.8785Z" fill="white"/>
<path d="M21.5325 14.384L18.0565 10.2691L15.9319 12.0639L19.4079 16.1787L21.5325 14.384Z" fill="white"/>
<path d="M13.7996 24.1061L9.11523 21.4188L7.73128 23.8313L12.4157 26.5185L13.7996 24.1061Z" fill="white"/>
<path d="M9.88813 35.868L4.55769 34.9334L4.07749 37.6722L9.40793 38.6068L9.88813 35.868Z" fill="white"/>
<path d="M74.9325 69.9813L71.4563 65.8639L69.3311 67.6581L72.8074 71.7755L74.9325 69.9813Z" fill="white"/>
<path d="M83.1316 58.2143L78.4467 55.5267L77.063 57.9386L81.748 60.6262L83.1316 58.2143Z" fill="white"/>
<path d="M86.792 44.3701L81.4614 43.4332L80.98 46.1725L86.3106 47.1094L86.792 44.3701Z" fill="white"/>
<path d="M85.9383 32.8647L85.4602 30.1249L80.1272 31.0555L80.6053 33.7953L85.9383 32.8647Z" fill="white"/>
<path d="M80.6754 19.6047L79.2928 17.1914L74.6062 19.8763L75.9888 22.2896L80.6754 19.6047Z" fill="white"/>
<path d="M71.1677 8.92781L69.0439 7.13195L65.5653 11.2457L67.6891 13.0415L71.1677 8.92781Z" fill="white"/>
<path d="M58.5606 2.11906L55.9505 1.16032L54.0959 6.20953L56.706 7.16827L58.5606 2.11906Z" fill="white"/>
<path d="M67.382 89H64.6008V62.5204L65.011 62.1123C70.4435 56.7083 73.4333 49.5285 73.4333 41.8974C73.4333 26.1139 60.497 13.2735 44.5952 13.2735C28.6914 13.2735 15.753 26.1139 15.753 41.8974C15.753 42.3265 15.7697 42.7527 15.7864 43.1789L15.8023 43.5829L15.6 43.9528L7.04419 58.6712H13.0406V71.9106C13.0406 75.6083 16.0728 78.6169 19.7997 78.6169H34.0995V89H31.3182V81.3975H19.7997C14.5397 81.3975 10.2593 77.1414 10.2593 71.9099V61.4524H2.20898L12.9933 42.9043C12.9808 42.5643 12.9717 42.2319 12.9717 41.8974C12.9717 24.5807 27.1582 10.4923 44.5952 10.4923C62.0302 10.4923 76.2146 24.5807 76.2146 41.8974C76.2146 50.0806 73.0829 57.7881 67.382 63.6691V89Z" fill="white"/>
<path d="M44.2358 66.4767C30.7648 66.4767 19.8053 55.5909 19.8053 42.211H22.5865C22.5865 54.0578 32.2979 63.6955 44.2358 63.6955C56.1715 63.6955 65.8815 54.0578 65.8815 42.211C65.8815 30.365 56.1715 20.728 44.2358 20.728V17.9467C57.7047 17.9467 68.6628 28.8318 68.6628 42.211C68.6628 55.5909 57.7047 66.4767 44.2358 66.4767Z" fill="white"/>
<path d="M22.5865 42.211H19.8053C19.8053 41.7243 19.8206 41.2411 19.8491 40.7613L22.6254 40.9233C22.6004 41.3495 22.5865 41.7785 22.5865 42.211Z" fill="white"/>
<path d="M22.9029 38.5335L20.1626 38.0572C20.3198 37.1519 20.5312 36.2466 20.7912 35.3671L23.4584 36.1549C23.229 36.9329 23.0419 37.7332 22.9029 38.5335ZM24.2845 33.8575L21.725 32.7687C22.0838 31.926 22.4961 31.0937 22.9502 30.2941L25.3685 31.6694C24.9659 32.3758 24.6015 33.1122 24.2845 33.8575ZM26.6951 29.6175L24.4493 27.9773C24.9902 27.2368 25.5791 26.5192 26.2 25.8455L28.2457 27.7291C27.6957 28.3256 27.1742 28.9612 26.6951 29.6175ZM29.9985 26.0255L28.1768 23.9243C28.8687 23.325 29.6022 22.7576 30.358 22.2389L31.9329 24.5313C31.2619 24.9909 30.6118 25.4943 29.9985 26.0255ZM34.0202 23.2638L32.7137 20.8086C33.5238 20.3775 34.3651 19.9888 35.2162 19.653L36.2376 22.2403C35.4839 22.5379 34.7378 22.8827 34.0202 23.2638ZM38.5578 21.4733L37.8354 18.788C38.7198 18.5502 39.6286 18.3597 40.5346 18.2227L40.9504 20.9727C40.1466 21.0937 39.3415 21.2627 38.5578 21.4733Z" fill="white"/>
<path d="M42.948 20.7648L42.786 17.9884C43.2658 17.9599 43.7497 17.9467 44.2358 17.9467V20.728C43.804 20.728 43.3743 20.7398 42.948 20.7648Z" fill="white"/>
<path d="M44.2358 59.0049C34.9144 59.0049 27.3313 51.4719 27.3313 42.2124C27.3313 32.9522 34.9144 25.4178 44.2358 25.4178C53.5557 25.4178 61.1381 32.9516 61.1381 42.2124H58.3569C58.3569 34.4854 52.0233 28.1991 44.2358 28.1991C36.4483 28.1991 30.1126 34.4854 30.1126 42.2124C30.1126 49.938 36.4483 56.2237 44.2358 56.2237V59.0049Z" fill="white"/>
<path d="M61.0728 43.7039L58.3026 43.4577C58.3395 43.0475 58.3569 42.6282 58.3569 42.2124H61.1381C61.1381 42.7103 61.1159 43.2116 61.0728 43.7039Z" fill="white"/>
<path d="M48.7706 58.3937L48.0308 55.7133C48.9423 55.4623 49.8316 55.1167 50.675 54.6856L51.9377 57.1637C50.9267 57.6789 49.8608 58.0934 48.7706 58.3937ZM54.7948 55.326L53.0634 53.149C53.8033 52.5601 54.4881 51.8933 55.0965 51.1667L57.227 52.9536C56.499 53.8234 55.6799 54.6217 54.7948 55.326ZM59.1377 50.1418L56.6902 48.8193C57.1408 47.9863 57.5065 47.1053 57.777 46.2014L60.4414 46.9976C60.1167 48.0836 59.678 49.1412 59.1377 50.1418Z" fill="white"/>
<path d="M44.2358 59.0049V56.2237C44.6529 56.2237 45.0729 56.2063 45.4852 56.1701L45.723 58.9416C45.2328 58.9841 44.7315 59.0049 44.2358 59.0049Z" fill="white"/>
<path d="M44.2344 51.5157C39.0724 51.5157 34.872 47.3417 34.872 42.211C34.872 37.0803 39.0724 32.9064 44.2344 32.9064C49.3978 32.9064 53.5968 37.0803 53.5968 42.211C53.5968 47.3417 49.3978 51.5157 44.2344 51.5157ZM44.2344 35.6876C40.6055 35.6876 37.6532 38.6135 37.6532 42.211C37.6532 45.8079 40.6055 48.7345 44.2344 48.7345C47.8632 48.7345 50.8155 45.8079 50.8155 42.211C50.8155 38.6142 47.8632 35.6876 44.2344 35.6876Z" fill="white"/>
</svg>
