<svg width="710" height="710" viewBox="0 0 710 710" fill="none" xmlns="http://www.w3.org/2000/svg">
<path fill-rule="evenodd" clip-rule="evenodd" d="M369.033 399.035C376.87 408.837 385.573 419.596 391.679 427.118C398.468 406.694 389.401 378.156 379.285 356.821C376.87 370.087 373.499 384.128 369.033 399.035Z" fill="#F2C94C"/>
<path fill-rule="evenodd" clip-rule="evenodd" d="M321.282 323.451C311.212 333.115 302.19 351.168 308.979 379.387C315.085 378.886 323.743 378.202 331.58 377.472C327.114 357.414 323.743 339.498 321.282 323.451Z" fill="#F2994A"/>
<path opacity="0.2" d="M342.97 423.972C286.651 207.612 332.991 189.24 350.488 181.855C367.985 209.481 414.279 281.328 357.915 432.588L342.97 423.972Z" fill="url(#paint0_linear_59_2119)"/>
<path opacity="0.1" d="M359.557 411.527C303.239 195.212 349.533 176.795 367.075 169.409C384.572 197.036 430.867 268.882 374.503 420.143L359.557 411.527Z" fill="url(#paint1_linear_59_2119)"/>
<path opacity="0.15" d="M357.915 432.588C414.28 281.328 367.985 209.481 350.488 181.855V428.303L357.915 432.588Z" fill="url(#paint2_linear_59_2119)"/>
<path opacity="0.1" d="M367.257 258.032C367.257 271.207 359.51 277.407 349.942 271.891C340.373 266.375 332.627 251.194 332.627 238.019C332.627 224.844 340.373 218.644 349.942 224.161C359.51 229.677 367.257 244.857 367.257 258.032Z" fill="white"/>
<path opacity="0.1" d="M363.839 481.549C359.875 475.076 357.961 466.87 356.275 459.667C354.316 451.37 352.676 444.304 348.575 442.526C343.882 440.475 341.786 445.672 338.824 452.875C337.093 457.114 335.042 462.129 332.035 466.733C328.8 463.314 325.382 460.488 321.783 458.436C306.701 449.729 294.125 457.251 291.163 475.213C289.112 473.663 287.062 472.25 284.966 471.019C260.771 457.069 241.178 472.888 241.178 506.44C241.178 539.948 260.771 578.424 284.92 592.374C308.386 605.913 327.569 591.371 328.663 559.869C333.083 568.075 338.961 574.959 345.477 578.697C347.162 579.655 348.803 580.384 350.352 580.84C359.738 601.491 373.727 619.27 389.356 628.297C417.606 644.617 440.526 626.2 440.571 587.177C440.571 548.153 417.652 503.249 389.401 486.929C380.061 481.55 371.358 479.908 363.839 481.549Z" fill="url(#paint3_linear_59_2119)"/>
<path opacity="0.3" d="M409.359 332.295L532.704 403.549L532.75 467.873L420.295 402.911L409.405 406.466L409.359 332.295Z" fill="url(#paint4_linear_59_2119)"/>
<path fill-rule="evenodd" clip-rule="evenodd" d="M496.844 414.854V397.394L543.411 424.291V441.751L496.844 414.854Z" fill="#F2C94C"/>
<path opacity="0.1" d="M441.072 366.258L468.092 381.849V387.502L441.072 371.911V366.258Z" fill="white"/>
<path opacity="0.1" d="M441.119 377.563L489.874 405.737V411.39L441.119 383.216V377.563Z" fill="white"/>
<path opacity="0.15" d="M441.119 388.869L504.227 425.34V430.993L441.119 394.522V388.869Z" fill="white"/>
<path fill-rule="evenodd" clip-rule="evenodd" d="M434.421 368.309C434.421 373.597 431.277 376.105 427.404 373.871C423.531 371.637 420.387 365.528 420.387 360.24C420.387 354.952 423.531 352.445 427.404 354.678C431.322 356.912 434.421 363.021 434.421 368.309Z" fill="#F2C94C"/>
<path opacity="0.3" d="M302.964 241.438L179.619 170.23L179.665 234.554L292.12 299.472L303.01 315.61L302.964 241.438Z" fill="url(#paint5_linear_59_2119)"/>
<path fill-rule="evenodd" clip-rule="evenodd" d="M166.451 195.303V177.843L213.019 204.74V222.2L166.451 195.303Z" fill="#F2994A"/>
<path opacity="0.15" d="M271.251 238.794L244.23 223.203V228.856L271.251 244.447V238.794Z" fill="white"/>
<path opacity="0.15" d="M271.251 250.1L219.17 220.012V225.665L271.251 255.753V250.1Z" fill="white"/>
<path opacity="0.15" d="M271.25 261.406L208.143 224.936V230.588L271.25 267.059V261.406Z" fill="white"/>
<path fill-rule="evenodd" clip-rule="evenodd" d="M277.904 248.504C277.904 253.793 281.048 259.901 284.921 262.135C288.794 264.369 291.938 261.862 291.938 256.573C291.938 251.285 288.794 245.176 284.921 242.943C281.048 240.754 277.904 243.216 277.904 248.504Z" fill="#F2994A"/>
<path opacity="0.2" d="M286.562 310.094L212.883 267.56V305.945L286.562 348.479V310.094Z" fill="url(#paint6_linear_59_2119)"/>
<path opacity="0.15" d="M231.746 287.664L256.989 302.252V306.857L231.746 292.269V287.664Z" fill="white"/>
<path opacity="0.15" d="M231.746 296.919L278.952 324.18V328.83L231.746 301.569V296.919Z" fill="white"/>
<path fill-rule="evenodd" clip-rule="evenodd" d="M227.872 289.032C227.872 292.178 226.004 293.682 223.68 292.36C221.356 291.038 219.488 287.391 219.488 284.2C219.488 281.054 221.356 279.55 223.68 280.872C225.959 282.239 227.872 285.886 227.872 289.032Z" fill="#F2994A"/>
<path opacity="0.2" d="M505.365 339.087L431.686 296.554V334.939L505.365 377.518V339.087Z" fill="url(#paint7_linear_59_2119)"/>
<path opacity="0.15" d="M450.551 316.704L475.794 331.292V335.896L450.551 321.308V316.704Z" fill="white"/>
<path opacity="0.15" d="M450.596 325.958L497.801 353.22V357.87L450.596 330.608V325.958Z" fill="white"/>
<path fill-rule="evenodd" clip-rule="evenodd" d="M446.677 318.072C446.677 321.217 444.809 322.722 442.485 321.399C440.161 320.077 438.293 316.43 438.293 313.239C438.293 310.094 440.161 308.589 442.485 309.911C444.809 311.279 446.677 314.926 446.677 318.072Z" fill="#F2C94C"/>
<defs>
<linearGradient id="paint0_linear_59_2119" x1="4269.77" y1="949.099" x2="-6631.86" y2="19826.8" gradientUnits="userSpaceOnUse">
<stop stop-color="white"/>
<stop offset="1" stop-color="white" stop-opacity="0"/>
</linearGradient>
<linearGradient id="paint1_linear_59_2119" x1="4287.05" y1="936.904" x2="-6614.81" y2="19814.2" gradientUnits="userSpaceOnUse">
<stop stop-color="white"/>
<stop offset="1" stop-color="white" stop-opacity="0"/>
</linearGradient>
<linearGradient id="paint2_linear_59_2119" x1="2118.41" y1="6303.01" x2="-6301.97" y2="21487.3" gradientUnits="userSpaceOnUse">
<stop stop-color="white" stop-opacity="0"/>
<stop offset="1" stop-color="white"/>
</linearGradient>
<linearGradient id="paint3_linear_59_2119" x1="14070.9" y1="4765.91" x2="8279.47" y2="14794.7" gradientUnits="userSpaceOnUse">
<stop stop-color="white"/>
<stop offset="1" stop-color="white" stop-opacity="0"/>
</linearGradient>
<linearGradient id="paint4_linear_59_2119" x1="5857.18" y1="540.679" x2="7449.43" y2="13448.2" gradientUnits="userSpaceOnUse">
<stop stop-color="white"/>
<stop offset="1" stop-color="white" stop-opacity="0"/>
</linearGradient>
<linearGradient id="paint5_linear_59_2119" x1="8855.58" y1="4716.4" x2="3585.74" y2="8840.44" gradientUnits="userSpaceOnUse">
<stop stop-color="white"/>
<stop offset="1" stop-color="white" stop-opacity="0"/>
</linearGradient>
<linearGradient id="paint6_linear_59_2119" x1="4586.39" y1="2873.3" x2="2994.05" y2="5630.53" gradientUnits="userSpaceOnUse">
<stop stop-color="white"/>
<stop offset="1" stop-color="white" stop-opacity="0"/>
</linearGradient>
<linearGradient id="paint7_linear_59_2119" x1="4805.19" y1="2902.87" x2="3212.04" y2="5661.61" gradientUnits="userSpaceOnUse">
<stop stop-color="white"/>
<stop offset="1" stop-color="white" stop-opacity="0"/>
</linearGradient>
</defs>
</svg>
