<svg width="710" height="710" viewBox="0 0 710 710" fill="none" xmlns="http://www.w3.org/2000/svg">
<path opacity="0.1" d="M337.191 125.581L582.728 495.213L337.253 353.46L337.191 125.581Z" fill="url(#paint0_linear_59_2117)"/>
<path opacity="0.4" d="M571.615 521.02C574.146 522.502 575.257 519.476 573.282 516.513L313.607 125.643C311.878 122.988 309.285 122.926 309.285 125.519L309.347 366.425C309.347 368.154 310.52 370.191 312.002 371.056L571.615 521.02ZM347.749 236.896C347.749 234.303 350.342 234.365 352.07 237.02L465.917 408.161C467.893 411.124 466.782 414.15 464.25 412.668L350.465 346.916C348.983 346.051 347.81 344.014 347.81 342.285L347.749 236.896Z" fill="url(#paint1_linear_59_2117)"/>
<path opacity="0.3" d="M431.961 133.669L615.697 239.798V335.556L448.198 238.749L432.023 244.058L431.961 133.669Z" fill="url(#paint2_linear_59_2117)"/>
<path fill-rule="evenodd" clip-rule="evenodd" d="M469.251 187.32C469.251 195.223 464.558 198.927 458.817 195.593C453.075 192.259 448.383 183.184 448.383 175.281C448.383 167.378 453.075 163.674 458.817 167.008C464.62 170.342 469.251 179.417 469.251 187.32Z" fill="#F2C94C"/>
<path opacity="0.15" d="M479.191 184.233L519.445 207.509V215.905L479.191 192.63V184.233Z" fill="white"/>
<path opacity="0.15" d="M479.191 201.088L599.397 270.544V278.941L479.191 209.484V201.088Z" fill="white"/>
<path opacity="0.15" d="M479.191 217.943L573.22 272.273V280.67L479.191 226.339V217.943Z" fill="white"/>
<path opacity="0.3" d="M277.674 369.636L94 263.506V359.264L261.498 456.009L277.736 480.025L277.674 369.636Z" fill="url(#paint3_linear_59_2117)"/>
<path fill-rule="evenodd" clip-rule="evenodd" d="M240.383 380.131C240.383 388.034 245.075 397.11 250.817 400.444C256.558 403.777 261.251 400.073 261.251 392.17C261.251 384.268 256.558 375.192 250.817 371.858C245.075 368.586 240.383 372.29 240.383 380.131Z" fill="#F2994A"/>
<path opacity="0.15" d="M230.443 365.684L190.189 342.409V350.805L230.443 374.081V365.684Z" fill="white"/>
<path opacity="0.15" d="M230.506 382.478L110.238 313.021V321.418L230.444 390.874L230.506 382.478Z" fill="white"/>
<path opacity="0.15" d="M230.505 399.332L136.477 345.002V353.398L230.505 407.729V399.332Z" fill="white"/>
<path opacity="0.2" d="M212.354 122L289.095 166.329L289.157 332.592L212.354 288.263V122Z" fill="url(#paint4_linear_59_2117)"/>
<path fill-rule="evenodd" clip-rule="evenodd" d="M188.338 167.625L248.719 202.508V222.45L188.338 187.567V167.625Z" fill="#F2994A"/>
<path opacity="0.15" d="M212.354 263.568L289.095 307.897V332.53L212.354 288.202V263.568Z" fill="white"/>
<path opacity="0.15" d="M221.801 152.19L253.288 170.342V178.738L221.801 160.587V152.19Z" fill="white"/>
<path opacity="0.15" d="M221.861 169.045L277.55 201.211V209.608L221.861 177.442V169.045Z" fill="white"/>
<path opacity="0.15" d="M254.521 261.036V269.433L221.861 250.541V242.144L254.521 261.036Z" fill="white"/>
<path opacity="0.2" d="M374.48 420.756L297.738 376.427L297.8 542.69L374.542 587.019L374.48 420.756Z" fill="url(#paint5_linear_59_2117)"/>
<path fill-rule="evenodd" clip-rule="evenodd" d="M398.498 494.102L338.117 459.219V479.161L398.498 514.044V494.102Z" fill="#F2C94C"/>
<path opacity="0.15" d="M374.543 562.324L297.801 517.995V542.629L374.543 586.957V562.324Z" fill="white"/>
<path opacity="0.15" d="M309.346 407.852L340.833 426.003V434.4L309.346 416.249V407.852Z" fill="white"/>
<path opacity="0.15" d="M309.346 424.707L365.034 456.873V465.27L309.346 433.104V424.707Z" fill="white"/>
<path opacity="0.15" d="M332.375 511.142V519.538L365.035 538.43V530.034L332.375 511.142Z" fill="white"/>
<path opacity="0.2" d="M531.114 314.997C534.818 317.096 537.781 322.282 537.781 326.542V345.372L550.253 352.534C553.957 354.633 556.921 359.819 556.921 364.079C556.921 368.339 553.957 370.068 550.253 367.969L537.781 360.807V379.637C537.781 383.897 534.818 385.626 531.114 383.527C527.409 381.428 524.446 376.242 524.446 371.982V353.151L511.974 345.928C508.27 343.829 505.307 338.643 505.307 334.321C505.307 330.061 508.27 328.332 511.974 330.431L524.446 337.593V318.763C524.446 314.564 527.409 312.836 531.114 314.997Z" fill="url(#paint6_linear_59_2117)"/>
<defs>
<linearGradient id="paint0_linear_59_2117" x1="15088.3" y1="8901.02" x2="4275.15" y2="27618.6" gradientUnits="userSpaceOnUse">
<stop stop-color="white"/>
<stop offset="1" stop-color="white" stop-opacity="0"/>
</linearGradient>
<linearGradient id="paint1_linear_59_2117" x1="16259.6" y1="9487.74" x2="5302.86" y2="28442.4" gradientUnits="userSpaceOnUse">
<stop stop-color="white"/>
<stop offset="0.8963" stop-color="white" stop-opacity="0"/>
</linearGradient>
<linearGradient id="paint2_linear_59_2117" x1="8553.08" y1="446.19" x2="10910.2" y2="19661.2" gradientUnits="userSpaceOnUse">
<stop stop-color="white"/>
<stop offset="1" stop-color="white" stop-opacity="0"/>
</linearGradient>
<linearGradient id="paint3_linear_59_2117" x1="13008" y1="7038.82" x2="5168.02" y2="13174.3" gradientUnits="userSpaceOnUse">
<stop stop-color="white"/>
<stop offset="1" stop-color="white" stop-opacity="0"/>
</linearGradient>
<linearGradient id="paint4_linear_59_2117" x1="4531.4" y1="4419.77" x2="-663.063" y2="13411.4" gradientUnits="userSpaceOnUse">
<stop stop-color="white"/>
<stop offset="1" stop-color="white" stop-opacity="0"/>
</linearGradient>
<linearGradient id="paint5_linear_59_2117" x1="4616.78" y1="4674.19" x2="-577.676" y2="13665.8" gradientUnits="userSpaceOnUse">
<stop stop-color="white"/>
<stop offset="1" stop-color="white" stop-opacity="0"/>
</linearGradient>
<linearGradient id="paint6_linear_59_2117" x1="3779.69" y1="2813.39" x2="1467.01" y2="4638.5" gradientUnits="userSpaceOnUse">
<stop stop-color="white"/>
<stop offset="1" stop-color="white" stop-opacity="0"/>
</linearGradient>
</defs>
</svg>
