<svg width="710" height="710" viewBox="0 0 710 710" fill="none" xmlns="http://www.w3.org/2000/svg">
<path opacity="0.5" d="M455.688 258.889C404.558 229.027 362.269 256.972 354.788 321.333C353.49 332.524 361.96 347.239 372.223 353.236L539.092 450.674C549.355 456.671 557.825 451.848 556.588 439.174C549.108 366.034 506.818 288.689 455.688 258.889Z" fill="url(#paint0_linear_59_2120)"/>
<path opacity="0.5" d="M512.692 175.238C512.692 219.691 486.972 240.712 455.255 222.164C423.601 203.678 397.881 152.672 397.881 108.219C397.881 63.7659 423.601 42.745 455.317 61.2928C487.034 79.7788 512.692 130.847 512.692 175.238Z" fill="url(#paint1_linear_59_2120)"/>
<path opacity="0.07" d="M480.419 240.341C429.289 210.479 387 238.425 379.519 302.786C378.22 313.976 386.69 328.691 396.954 334.688L563.822 432.126C574.085 438.123 582.555 433.3 581.319 420.626C573.838 347.486 531.549 270.141 480.419 240.341Z" fill="url(#paint2_linear_59_2120)"/>
<path opacity="0.07" d="M537.422 156.69C537.422 201.143 511.703 222.164 479.986 203.616C448.331 185.13 422.611 134.124 422.611 89.671C422.611 45.218 448.331 24.1971 480.048 42.745C511.765 61.231 537.422 112.299 537.422 156.69Z" fill="url(#paint3_linear_59_2120)"/>
<path opacity="0.2" d="M244.12 281.579L129 215.116V275.088L244.182 341.551L244.12 281.579Z" fill="url(#paint4_linear_59_2120)"/>
<path fill-rule="evenodd" clip-rule="evenodd" d="M152.371 248.75C152.371 253.696 149.465 255.983 145.817 253.943C142.231 251.841 139.264 246.153 139.264 241.207C139.264 236.261 142.169 233.973 145.817 236.013C149.465 238.116 152.371 243.804 152.371 248.75Z" fill="#F2994A"/>
<path opacity="0.15" d="M158.305 246.895L195.957 268.596V277.004L158.305 255.303V246.895Z" fill="white"/>
<path opacity="0.15" d="M158.49 263.835L232.249 306.433V314.841L158.49 272.243V263.835Z" fill="white"/>
<path opacity="0.05" d="M425.889 342.045L541.565 408.817V657.914L425.889 591.204V342.045Z" fill="url(#paint5_linear_59_2120)"/>
<path opacity="0.3" d="M522.276 425.51L406.537 358.738V607.835L522.214 674.608L522.276 425.51ZM444.251 396.452L482.892 418.709V428.602L444.251 406.653V396.452Z" fill="url(#paint6_linear_59_2120)"/>
<path opacity="0.15" d="M417.729 516.58L510.653 570.183V578.592L417.729 524.988V516.58Z" fill="white"/>
<path opacity="0.15" d="M424.281 536.735L504.222 582.858V591.266L424.281 545.144V536.735Z" fill="white"/>
<path fill-rule="evenodd" clip-rule="evenodd" d="M490.25 495.621C490.25 475.899 478.689 453.208 464.469 444.986C450.249 436.763 438.688 446.098 438.688 465.821C438.688 485.543 450.249 508.234 464.469 516.457C478.689 524.679 490.25 515.344 490.25 495.621Z" fill="#F2994A"/>
<path opacity="0.05" d="M281.834 141.543L397.511 208.315V457.412L281.834 390.64V141.543Z" fill="url(#paint7_linear_59_2120)"/>
<path opacity="0.3" d="M378.221 225.194L262.482 158.422V407.519L378.159 474.291L378.221 225.194ZM300.196 196.136L338.838 218.393V228.285L300.196 206.337V196.136Z" fill="url(#paint8_linear_59_2120)"/>
<path opacity="0.15" d="M273.674 316.016L366.598 369.62V378.028L273.674 324.425V316.016Z" fill="white"/>
<path opacity="0.15" d="M280.165 336.233L360.045 382.356V390.764L280.104 344.642L280.165 336.233Z" fill="white"/>
<path fill-rule="evenodd" clip-rule="evenodd" d="M346.196 295.119C346.196 275.396 334.634 252.706 320.414 244.483C306.194 236.261 294.633 245.596 294.633 265.319C294.633 285.041 306.194 307.731 320.414 315.954C334.634 324.177 346.196 314.841 346.196 295.119Z" fill="#F2C94C"/>
<path opacity="0.3" d="M346.196 434.042L162.201 327.825L162.263 423.717L329.997 520.537L346.257 544.587L346.196 434.042Z" fill="url(#paint9_linear_59_2120)"/>
<path fill-rule="evenodd" clip-rule="evenodd" d="M142.602 365.23V339.201L212.032 379.264V405.293L142.602 365.23Z" fill="#F2994A"/>
<path opacity="0.15" d="M298.898 430.085L258.588 406.839V415.247L298.898 438.494V430.085Z" fill="white"/>
<path opacity="0.15" d="M298.899 446.964L221.184 402.14V410.548L298.899 455.372V446.964Z" fill="white"/>
<path opacity="0.15" d="M298.898 463.781L204.799 409.436V417.844L298.96 472.189L298.898 463.781Z" fill="white"/>
<path fill-rule="evenodd" clip-rule="evenodd" d="M308.852 444.615C308.852 452.528 313.551 461.617 319.301 464.955C325.051 468.294 329.749 464.584 329.749 456.671C329.749 448.757 325.051 439.669 319.301 436.33C313.489 432.991 308.79 436.701 308.852 444.615Z" fill="#F2994A"/>
<path opacity="0.2" d="M201.955 146.304C205.664 148.406 208.632 153.599 208.632 157.865V176.722L221.121 183.894C224.83 185.996 227.798 191.189 227.798 195.455C227.798 199.721 224.83 201.452 221.121 199.35L208.632 192.179V211.035C208.632 215.301 205.664 217.033 201.955 214.931C198.245 212.828 195.277 207.635 195.277 203.369V184.512L182.789 177.34C179.079 175.238 176.111 170.045 176.111 165.779C176.111 161.513 179.079 159.782 182.789 161.884L195.277 169.056V150.199C195.277 145.933 198.245 144.201 201.955 146.304Z" fill="url(#paint10_linear_59_2120)"/>
<defs>
<linearGradient id="paint0_linear_59_2120" x1="30694" y1="-3425.64" x2="10479.1" y2="11320.6" gradientUnits="userSpaceOnUse">
<stop stop-color="white"/>
<stop offset="1" stop-color="white" stop-opacity="0"/>
</linearGradient>
<linearGradient id="paint1_linear_59_2120" x1="10713.9" y1="1074.56" x2="-2376.75" y2="10623.8" gradientUnits="userSpaceOnUse">
<stop stop-color="white"/>
<stop offset="1" stop-color="white" stop-opacity="0"/>
</linearGradient>
<linearGradient id="paint2_linear_59_2120" x1="30718.8" y1="-3444.19" x2="10503.8" y2="11302" gradientUnits="userSpaceOnUse">
<stop stop-color="white"/>
<stop offset="1" stop-color="white" stop-opacity="0"/>
</linearGradient>
<linearGradient id="paint3_linear_59_2120" x1="10738.6" y1="1056.01" x2="-2352.02" y2="10605.3" gradientUnits="userSpaceOnUse">
<stop stop-color="white"/>
<stop offset="1" stop-color="white" stop-opacity="0"/>
</linearGradient>
<linearGradient id="paint4_linear_59_2120" x1="6965.17" y1="4288.32" x2="4479.11" y2="8595.55" gradientUnits="userSpaceOnUse">
<stop stop-color="white"/>
<stop offset="1" stop-color="white" stop-opacity="0"/>
</linearGradient>
<linearGradient id="paint5_linear_59_2120" x1="7110.38" y1="4500.47" x2="-4115.99" y2="23950" gradientUnits="userSpaceOnUse">
<stop stop-color="white"/>
<stop offset="1" stop-color="white" stop-opacity="0"/>
</linearGradient>
<linearGradient id="paint6_linear_59_2120" x1="7094.83" y1="4514.63" x2="-4131.7" y2="23965.5" gradientUnits="userSpaceOnUse">
<stop stop-color="white"/>
<stop offset="1" stop-color="white" stop-opacity="0"/>
</linearGradient>
<linearGradient id="paint7_linear_59_2120" x1="6966.44" y1="4299.33" x2="-4259.93" y2="23748.8" gradientUnits="userSpaceOnUse">
<stop stop-color="white"/>
<stop offset="1" stop-color="white" stop-opacity="0"/>
</linearGradient>
<linearGradient id="paint8_linear_59_2120" x1="6950.78" y1="4314.32" x2="-4275.76" y2="23765.1" gradientUnits="userSpaceOnUse">
<stop stop-color="white"/>
<stop offset="1" stop-color="white" stop-opacity="0"/>
</linearGradient>
<linearGradient id="paint9_linear_59_2120" x1="13101.9" y1="7107.71" x2="5245.49" y2="13259.2" gradientUnits="userSpaceOnUse">
<stop stop-color="white"/>
<stop offset="1" stop-color="white" stop-opacity="0"/>
</linearGradient>
<linearGradient id="paint10_linear_59_2120" x1="3456.5" y1="2646.58" x2="1139.33" y2="4475.25" gradientUnits="userSpaceOnUse">
<stop stop-color="white"/>
<stop offset="1" stop-color="white" stop-opacity="0"/>
</linearGradient>
</defs>
</svg>
