<svg width="710" height="710" viewBox="0 0 710 710" fill="none" xmlns="http://www.w3.org/2000/svg">
<path opacity="0.07" d="M540.831 356.597C534.359 352.826 529.671 352.724 526.767 356.291C523.862 359.807 522.435 365.769 522.435 374.177V419.477C522.435 428.089 521.62 435.223 520.04 440.879C518.461 446.739 515.76 450.918 512.04 453.364C508.422 455.86 503.53 456.523 497.314 455.351C491.25 454.23 483.657 451.07 474.587 445.822L470.256 443.325V407.656L475.657 410.764C482.129 414.535 486.46 414.993 488.651 412.242C490.944 409.592 492.116 404.038 492.116 395.63V355.731C492.116 345.336 493.135 337.132 495.174 331.068C497.212 325.004 501.237 321.182 507.301 319.45C501.237 310.736 497.212 302.226 495.174 293.87C493.135 285.513 492.167 276.137 492.167 265.742V225.843C492.167 217.435 490.995 210.607 488.702 205.256C486.562 200.008 482.231 195.524 475.708 191.753L470.307 188.644V152.975L474.638 155.472C483.708 160.72 491.301 166.275 497.365 172.185C503.581 178.147 508.473 184.517 512.091 191.192C515.862 197.969 518.512 205.205 520.091 212.9C521.671 220.39 522.486 228.492 522.486 237.053V282.353C522.486 290.761 523.913 298.405 526.818 305.233C529.722 312.112 534.41 317.412 540.882 321.131L540.831 356.597Z" fill="url(#paint0_linear_59_2118)"/>
<path opacity="0.07" d="M376.494 225.384C382.966 229.155 387.654 229.257 390.558 225.69C393.463 222.174 394.89 216.212 394.89 207.804V162.504C394.89 153.892 395.705 146.758 397.285 141.102C398.864 135.242 401.463 131.013 405.081 128.516C408.852 126.07 413.744 125.407 419.807 126.528C426.024 127.7 433.668 130.911 442.738 136.159L447.069 138.656V174.326L441.668 171.217C435.196 167.447 430.763 166.937 428.47 169.587C426.33 172.338 425.209 177.893 425.209 186.3V226.199C425.209 236.595 424.19 244.799 422.151 250.862C420.113 256.875 416.088 260.748 410.024 262.48C416.088 271.194 420.113 279.704 422.151 288.061C424.19 296.418 425.158 305.794 425.158 316.189V356.088C425.158 364.495 426.228 371.324 428.419 376.572C430.712 381.923 435.145 386.458 441.617 390.178L447.018 393.286V428.955L442.687 426.459C433.617 421.21 425.973 415.605 419.756 409.643C413.693 403.732 408.801 397.413 405.03 390.636C401.412 383.961 398.813 376.776 397.234 369.031C395.654 361.54 394.839 353.438 394.839 344.877V299.577C394.839 291.169 393.412 283.526 390.507 276.697C387.603 269.818 382.915 264.519 376.443 260.799L376.494 225.384Z" fill="url(#paint1_linear_59_2118)"/>
<path opacity="0.4" d="M520.448 371.884C513.976 368.113 509.288 368.012 506.384 371.578C503.479 375.094 502.053 381.056 502.053 389.464V434.765C502.053 443.376 501.237 450.51 499.658 456.166C498.078 462.026 495.377 466.205 491.657 468.651C488.039 471.148 483.148 471.81 476.931 470.638C470.867 469.517 463.275 466.358 454.204 461.109L449.873 458.612V422.943L455.274 426.051C461.746 429.822 466.077 430.28 468.268 427.529C470.561 424.879 471.733 419.325 471.733 410.917V371.018C471.733 360.623 472.753 352.419 474.791 346.355C476.829 340.291 480.855 336.469 486.918 334.737C480.855 326.023 476.829 317.514 474.791 309.157C472.753 300.8 471.784 291.424 471.784 281.029V241.13C471.784 232.722 470.612 225.894 468.319 220.543C466.179 215.295 461.848 210.811 455.325 207.04L449.924 203.932V168.262L454.255 170.759C463.326 176.007 470.918 181.562 476.982 187.473C483.199 193.434 488.09 199.804 491.708 206.479C495.479 213.257 498.129 220.492 499.709 228.187C501.288 235.677 502.103 243.78 502.103 252.34V297.641C502.103 306.048 503.53 313.692 506.435 320.52C509.339 327.399 514.027 332.699 520.499 336.418L520.448 371.884Z" fill="url(#paint2_linear_59_2118)"/>
<path opacity="0.4" d="M356.112 240.671C362.583 244.442 367.271 244.544 370.176 240.977C373.08 237.461 374.507 231.499 374.507 223.091V177.791C374.507 169.179 375.322 162.045 376.902 156.389C378.481 150.529 381.08 146.3 384.698 143.803C388.469 141.357 393.361 140.694 399.425 141.815C405.641 142.987 413.285 146.198 422.355 151.446L426.686 153.943V189.613L421.285 186.504C414.813 182.733 410.38 182.224 408.087 184.874C405.947 187.625 404.826 193.18 404.826 201.587V241.486C404.826 251.881 403.807 260.085 401.769 266.149C399.73 272.162 395.705 276.035 389.641 277.767C395.705 286.481 399.73 294.991 401.769 303.348C403.807 311.704 404.775 321.08 404.775 331.476V371.374C404.775 379.782 405.845 386.61 408.036 391.859C410.329 397.209 414.762 401.745 421.234 405.464L426.635 408.573V444.242L422.304 441.745C413.234 436.497 405.59 430.892 399.374 424.93C393.31 419.019 388.418 412.7 384.647 405.923C381.029 399.248 378.43 392.063 376.851 384.317C375.271 376.827 374.456 368.725 374.456 360.164V314.864C374.456 306.456 373.029 298.812 370.125 291.984C367.22 285.105 362.532 279.806 356.061 276.086L356.112 240.671Z" fill="url(#paint3_linear_59_2118)"/>
<path opacity="0.15" d="M242.988 132.236L330.073 182.53L330.022 391.095L242.938 340.801L242.988 132.236Z" fill="url(#paint4_linear_59_2118)"/>
<path fill-rule="evenodd" clip-rule="evenodd" d="M226.631 164.287L295.881 204.288V223.499L226.631 183.498V164.287Z" fill="#F2C94C"/>
<path opacity="0.15" d="M253.74 247.652L320.289 286.073V315.934L253.74 277.513V247.652Z" fill="white"/>
<path opacity="0.15" d="M253.689 211.524L320.341 249.996V256.926L253.689 218.505V211.524Z" fill="white"/>
<path opacity="0.15" d="M253.689 225.078L311.321 258.353V265.283L253.689 232.008V225.078Z" fill="white"/>
<path opacity="0.2" d="M242.988 132.236L330.073 182.53V210.505L242.988 160.211V132.236Z" fill="url(#paint5_linear_59_2118)"/>
<path opacity="0.2" d="M264.747 158.937C264.747 163.166 262.25 165.153 259.193 163.421C256.135 161.637 253.689 156.797 253.689 152.567C253.689 148.338 256.186 146.351 259.244 148.083C262.25 149.867 264.747 154.707 264.747 158.937Z" fill="white"/>
<path opacity="0.15" d="M349.998 325.616L437.083 375.91L437.032 584.475L349.947 534.181L349.998 325.616Z" fill="url(#paint6_linear_59_2118)"/>
<path fill-rule="evenodd" clip-rule="evenodd" d="M383.17 386.305L452.42 426.255V445.414L383.119 405.464L383.17 386.305Z" fill="#F2994A"/>
<path opacity="0.15" d="M360.75 406.127L427.35 444.599V474.409L360.75 435.937V406.127Z" fill="white"/>
<path opacity="0.15" d="M360.648 448.727L427.3 487.199V494.129L360.648 455.708V448.727Z" fill="white"/>
<path opacity="0.15" d="M360.648 461.262L418.28 494.537V501.467L360.648 468.192V461.262Z" fill="white"/>
<path opacity="0.2" d="M349.998 325.616L437.083 375.91V403.885L349.998 353.591V325.616Z" fill="url(#paint7_linear_59_2118)"/>
<path opacity="0.2" d="M371.757 352.368C371.757 356.597 369.26 358.584 366.203 356.852C363.145 355.068 360.699 350.228 360.699 345.998C360.699 341.769 363.196 339.781 366.253 341.514C369.26 343.246 371.757 348.138 371.757 352.368Z" fill="white"/>
<path opacity="0.3" d="M334.914 354.508L183.318 267.016L183.369 346.049L321.614 425.847L335.016 445.669L334.914 354.508Z" fill="url(#paint8_linear_59_2118)"/>
<path opacity="0.15" d="M295.933 351.247L262.709 332.087V339.017L295.933 358.177V351.247Z" fill="white"/>
<path opacity="0.15" d="M295.933 365.158L213.689 317.667V324.597L295.984 372.088L295.933 365.158Z" fill="white"/>
<path opacity="0.15" d="M295.984 379.069L196.67 321.743V328.673L295.984 385.999V379.069Z" fill="white"/>
<path fill-rule="evenodd" clip-rule="evenodd" d="M304.137 363.221C304.137 369.744 308.009 377.234 312.748 379.986C317.487 382.738 321.36 379.68 321.36 373.158C321.36 366.636 317.487 359.145 312.748 356.393C307.958 353.642 304.137 356.699 304.137 363.221Z" fill="#F2994A"/>
<path opacity="0.15" d="M198.3 211.524L178.223 199.906V193.129L198.3 204.747C199.93 205.715 202.325 207.6 204.363 210.556C206.554 213.715 208.134 217.69 208.134 222.021C208.134 226.811 206.911 229.512 204.618 230.327C202.427 231.04 199.879 229.817 198.3 228.9L190.045 224.11L189.994 224.059C189.28 223.652 188.159 223.244 187.293 223.499C186.58 223.703 185.713 224.467 185.713 227.117C185.713 229.766 186.529 231.397 187.242 232.365C188.108 233.588 189.229 234.454 189.943 234.811L190.045 234.862L215.319 249.436V256.213L190.197 241.69C188.465 240.773 185.968 238.888 183.828 235.881C181.484 232.569 179.853 228.391 179.853 223.703C179.853 219.066 181.484 216.671 183.777 216.008C185.917 215.397 188.414 216.314 190.146 217.333L198.35 222.072C199.522 222.734 200.44 223.04 201 222.836C201.459 222.683 202.274 222.021 202.274 218.607C202.274 216.365 201.561 214.938 200.847 213.919C200.032 212.798 198.962 211.881 198.3 211.524Z" fill="white"/>
<path fill-rule="evenodd" clip-rule="evenodd" d="M184.185 200.619C184.185 206.428 180.771 209.129 176.593 206.734C172.414 204.339 169 197.664 169 191.855C169 186.046 172.414 183.345 176.593 185.74C180.771 188.186 184.185 194.861 184.185 200.619ZM224.441 256.671C224.441 262.48 221.027 265.181 216.848 262.786C212.67 260.391 209.256 253.716 209.256 247.907C209.256 242.098 212.67 239.397 216.848 241.792C221.027 244.238 224.441 250.913 224.441 256.671Z" fill="#F2C94C"/>
<path opacity="0.2" d="M278.608 433.847C281.666 435.631 284.112 439.86 284.112 443.427V458.969L294.405 464.88C297.462 466.663 299.908 470.893 299.908 474.46C299.908 477.976 297.411 479.403 294.405 477.67L284.112 471.759V487.301C284.112 490.817 281.615 492.244 278.608 490.511C275.551 488.728 273.105 484.498 273.105 480.931V465.389L262.812 459.479C259.755 457.695 257.309 453.466 257.309 449.899C257.309 446.383 259.805 444.956 262.812 446.688L273.105 452.599V437.058C273.105 433.491 275.551 432.064 278.608 433.847Z" fill="url(#paint9_linear_59_2118)"/>
<defs>
<linearGradient id="paint0_linear_59_2118" x1="4367.38" y1="1182.36" x2="-5233.93" y2="17822.4" gradientUnits="userSpaceOnUse">
<stop stop-color="white"/>
<stop offset="1" stop-color="white" stop-opacity="0"/>
</linearGradient>
<linearGradient id="paint1_linear_59_2118" x1="4454.94" y1="272.328" x2="-5144.51" y2="16909.1" gradientUnits="userSpaceOnUse">
<stop stop-color="white"/>
<stop offset="1" stop-color="white" stop-opacity="0"/>
</linearGradient>
<linearGradient id="paint2_linear_59_2118" x1="4347" y1="1197.64" x2="-5254.31" y2="17837.7" gradientUnits="userSpaceOnUse">
<stop stop-color="white"/>
<stop offset="1" stop-color="white" stop-opacity="0"/>
</linearGradient>
<linearGradient id="paint3_linear_59_2118" x1="4434.56" y1="287.614" x2="-5164.89" y2="16924.4" gradientUnits="userSpaceOnUse">
<stop stop-color="white"/>
<stop offset="1" stop-color="white" stop-opacity="0"/>
</linearGradient>
<linearGradient id="paint4_linear_59_2118" x1="5111.47" y1="5250.92" x2="-1364.72" y2="16470.4" gradientUnits="userSpaceOnUse">
<stop stop-color="white"/>
<stop offset="1" stop-color="white" stop-opacity="0"/>
</linearGradient>
<linearGradient id="paint5_linear_59_2118" x1="3231.91" y1="918.528" x2="5429.25" y2="7148.81" gradientUnits="userSpaceOnUse">
<stop stop-color="white"/>
<stop offset="1" stop-color="white" stop-opacity="0"/>
</linearGradient>
<linearGradient id="paint6_linear_59_2118" x1="5218.48" y1="5444.04" x2="-1257.76" y2="16663.8" gradientUnits="userSpaceOnUse">
<stop stop-color="white"/>
<stop offset="1" stop-color="white" stop-opacity="0"/>
</linearGradient>
<linearGradient id="paint7_linear_59_2118" x1="3339.27" y1="1112.77" x2="5536.61" y2="7343.05" gradientUnits="userSpaceOnUse">
<stop stop-color="white"/>
<stop offset="1" stop-color="white" stop-opacity="0"/>
</linearGradient>
<linearGradient id="paint8_linear_59_2118" x1="10847.5" y1="5855.66" x2="4372.32" y2="10925.7" gradientUnits="userSpaceOnUse">
<stop stop-color="white"/>
<stop offset="1" stop-color="white" stop-opacity="0"/>
</linearGradient>
<linearGradient id="paint9_linear_59_2118" x1="2959.19" y1="2499.55" x2="1053.34" y2="4002.65" gradientUnits="userSpaceOnUse">
<stop stop-color="white"/>
<stop offset="1" stop-color="white" stop-opacity="0"/>
</linearGradient>
</defs>
</svg>
