<svg width="69" height="69" viewBox="0 0 69 69" fill="none" xmlns="http://www.w3.org/2000/svg">
<path d="M63.4442 22.6595L55.8569 29.1282L58.1291 38.7586C58.2892 39.4336 58.2467 40.1408 58.007 40.7919C57.7673 41.4429 57.341 42.0088 56.7814 42.4188C56.2155 42.8344 55.5396 43.074 54.8382 43.1075C54.1369 43.1411 53.4412 42.9672 52.8382 42.6075L44.2132 37.4864L35.5882 42.6075C34.9851 42.9672 34.2894 43.1411 33.5881 43.1075C32.8867 43.074 32.2108 42.8344 31.6449 42.4188C31.0856 42.0085 30.6595 41.4426 30.4198 40.7917C30.1801 40.1407 30.1375 39.4336 30.2973 38.7586L32.5694 29.1282L24.9794 22.6595C24.4483 22.2061 24.0631 21.6057 23.8725 20.934C23.6819 20.2622 23.6942 19.549 23.908 18.8842C24.1218 18.2194 24.5275 17.6328 25.0741 17.1981C25.6206 16.7634 26.2835 16.5001 26.9793 16.4414L37.014 15.5924L40.9276 6.46873C41.2038 5.82911 41.6612 5.28434 42.2434 4.90161C42.8255 4.51888 43.507 4.31494 44.2037 4.31494C44.9004 4.31494 45.5819 4.51888 46.1641 4.90161C46.7462 5.28434 47.2037 5.82911 47.4799 6.46873L51.3935 15.5977L61.4254 16.4414C62.1229 16.4961 62.7884 16.7565 63.3379 17.1896C63.8873 17.6227 64.2959 18.209 64.512 18.8744C64.7282 19.5398 64.7421 20.2543 64.552 20.9276C64.3619 21.6009 63.9764 22.2026 63.4442 22.6568V22.6595ZM23.0873 30.8182C22.887 30.6177 22.6492 30.4587 22.3875 30.3501C22.1257 30.2416 21.8451 30.1858 21.5617 30.1858C21.2784 30.1858 20.9978 30.2416 20.736 30.3501C20.4743 30.4587 20.2365 30.6177 20.0362 30.8182L4.94245 45.9119C4.53785 46.3165 4.31055 46.8653 4.31055 47.4375C4.31055 48.0097 4.53785 48.5584 4.94245 48.963C5.34705 49.3676 5.8958 49.5949 6.468 49.5949C7.04019 49.5949 7.58894 49.3676 7.99354 48.963L23.0873 33.8693C23.2878 33.669 23.4468 33.4312 23.5553 33.1694C23.6638 32.9077 23.7197 32.6271 23.7197 32.3437C23.7197 32.0604 23.6638 31.7798 23.5553 31.518C23.4468 31.2562 23.2878 31.0184 23.0873 30.8182ZM27.3998 45.9119C27.1995 45.7115 26.9617 45.5524 26.7 45.4439C26.4382 45.3354 26.1576 45.2795 25.8742 45.2795C25.5909 45.2795 25.3103 45.3354 25.0485 45.4439C24.7868 45.5524 24.549 45.7115 24.3487 45.9119L9.25495 61.0057C9.05461 61.206 8.89569 61.4439 8.78727 61.7056C8.67885 61.9674 8.62305 62.2479 8.62305 62.5312C8.62305 62.8146 8.67885 63.0951 8.78727 63.3569C8.89569 63.6186 9.05461 63.8564 9.25495 64.0568C9.65955 64.4614 10.2083 64.6887 10.7805 64.6887C11.0638 64.6887 11.3444 64.6329 11.6061 64.5245C11.8679 64.416 12.1057 64.2571 12.306 64.0568L27.3998 48.963C27.6003 48.7628 27.7593 48.525 27.8678 48.2632C27.9763 48.0014 28.0322 47.7208 28.0322 47.4375C28.0322 47.1541 27.9763 46.8735 27.8678 46.6118C27.7593 46.35 27.6003 46.1122 27.3998 45.9119ZM43.7576 45.9119L28.6639 61.0057C28.2593 61.4103 28.032 61.959 28.032 62.5312C28.032 63.1034 28.2593 63.6522 28.6639 64.0568C29.0685 64.4614 29.6173 64.6887 30.1894 64.6887C30.7616 64.6887 31.3104 64.4614 31.715 64.0568L46.8087 48.963C47.2133 48.5588 47.4408 48.0104 47.441 47.4384C47.4413 46.8665 47.2143 46.3179 46.8101 45.9133C46.4058 45.5087 45.8574 45.2812 45.2855 45.281C44.7136 45.2807 44.1649 45.5077 43.7603 45.9119H43.7576Z" fill="#FCD205"/>
</svg>
