<svg width="120" height="60" viewBox="0 0 120 60" fill="none" xmlns="http://www.w3.org/2000/svg">
<g clip-path="url(#clip0_9_16)">
<path d="M74.4292 46.8739C67.4641 55.3785 57.3686 59.916 48.6767 59.916C36.4891 59.916 25.5171 52.4485 17.2164 40.0287C16.5643 39.052 17.1486 37.721 17.9312 38.4816C26.8893 47.1159 37.9656 52.3103 49.4071 52.3103C57.1234 52.3103 65.6119 49.6655 73.417 44.1773C74.5961 43.3475 75.5822 45.4564 74.4292 46.8739Z" fill="#FF9900"/>
<path d="M77.3247 41.3856C76.4378 39.5014 71.4396 40.4954 69.1962 40.9362C68.5127 41.0745 68.4084 40.0892 69.024 39.3804C73.0048 34.7392 79.5368 36.0788 80.2986 37.6346C81.0603 39.1989 80.1003 50.0458 76.3595 55.2229C75.7856 56.0181 75.2378 55.5946 75.4934 54.5401C76.3334 51.0657 78.2169 43.2784 77.3247 41.3856Z" fill="#FF9900"/>
<path d="M69.3527 6.61517V2.10357C69.3527 1.42078 69.6658 0.962708 70.0414 0.962708H82.2342C82.6255 0.962708 82.9385 1.42943 82.9385 2.10357V5.96695C82.9333 6.61517 82.6046 7.46218 82.0203 8.80183L75.7021 23.7454C78.0499 23.6504 80.5281 24.2294 82.6568 26.2173C83.1368 26.6667 83.2672 27.3236 83.3037 27.9718V32.7859C83.3037 33.4428 82.8655 34.212 82.4064 33.8144C78.6551 30.556 73.6726 30.2017 69.5249 33.849C69.1023 34.2293 68.6588 33.4687 68.6588 32.8119V28.2398C68.6588 27.5051 68.664 26.2519 69.1075 25.1369L76.4273 7.7474H70.057C69.6658 7.7474 69.3527 7.28933 69.3527 6.61517Z" fill="#221F1F"/>
<path d="M24.8754 34.7651H21.1659C20.8111 34.7219 20.5294 34.2811 20.5033 33.7193V2.18134C20.5033 1.5504 20.8215 1.04911 21.2181 1.04911H24.6771C25.0371 1.07502 25.3241 1.53311 25.3502 2.10355V6.22622H25.418C26.3206 2.24183 28.0162 0.383606 30.3014 0.383606C32.623 0.383606 34.0734 2.24183 35.1169 6.22622C36.0143 2.24183 38.0542 0.383606 40.2403 0.383606C41.795 0.383606 43.4959 1.44668 44.5341 3.83213C45.708 6.4855 45.468 10.3402 45.468 13.7196L45.4628 33.6243C45.4628 34.2552 45.1445 34.7651 44.748 34.7651H41.0437C40.6733 34.7219 40.3759 34.2293 40.3759 33.6243V16.9089C40.3759 15.5779 40.449 12.259 40.2716 10.9971C39.9951 8.8796 39.1655 8.28323 38.0908 8.28323C37.1934 8.28323 36.2543 9.27717 35.8734 10.8675C35.4925 12.4578 35.5291 15.1198 35.5291 16.9089V33.6243C35.5291 34.2552 35.2108 34.7651 34.8143 34.7651H31.11C30.7344 34.7219 30.4422 34.2293 30.4422 33.6243L30.437 16.9089C30.437 13.3912 30.7866 8.21409 28.1518 8.21409C25.4858 8.21409 25.5901 13.2615 25.5901 16.9089V33.6243C25.5901 34.2552 25.2719 34.7651 24.8754 34.7651Z" fill="#221F1F"/>
<path d="M93.4357 0.383606C98.9399 0.383606 101.919 8.21409 101.919 18.1707C101.919 27.7903 98.6269 35.422 93.4357 35.422C88.0306 35.422 85.088 27.5915 85.088 17.8337C85.088 8.0153 88.0671 0.383606 93.4357 0.383606ZM93.467 6.82258C90.7331 6.82258 90.5609 12.9936 90.5609 16.8397C90.5609 20.6945 90.5244 28.9225 93.4357 28.9225C96.3104 28.9225 96.446 22.2848 96.446 18.2399C96.446 15.5779 96.3782 12.3973 95.893 9.87353C95.4756 7.67823 94.6461 6.82258 93.467 6.82258Z" fill="#221F1F"/>
<path d="M109.056 34.7651H105.362C104.992 34.7219 104.695 34.2293 104.695 33.6243L104.689 2.07762C104.721 1.49854 105.028 1.04911 105.404 1.04911H108.842C109.166 1.07502 109.432 1.43804 109.505 1.93069V6.75343H109.573C110.611 2.44062 112.067 0.383606 114.628 0.383606C116.293 0.383606 117.915 1.37754 118.959 4.10006C119.929 6.62379 119.929 10.8675 119.929 13.9184V33.7712C119.887 34.3243 119.579 34.7651 119.214 34.7651H115.494C115.155 34.7219 114.873 34.3071 114.837 33.7712V16.6409C114.837 13.1924 115.077 8.14494 112.515 8.14494C111.613 8.14494 110.783 9.14753 110.371 10.6687C109.849 12.596 109.781 14.5148 109.781 16.6409V33.6243C109.776 34.2552 109.453 34.7651 109.056 34.7651Z" fill="#221F1F"/>
<path d="M59.633 19.7005V18.3695C56.9513 18.3695 54.1183 19.3202 54.1183 24.5579C54.1183 27.2112 54.9478 29.009 56.3722 29.009C57.4156 29.009 58.3495 27.9459 58.9391 26.2173C59.6695 24.0911 59.633 22.0946 59.633 19.7005ZM63.3738 34.6787C63.1285 35.0417 62.7738 35.0676 62.4973 34.8256C61.266 33.1316 61.0468 32.3451 60.3686 30.7289C58.3339 34.1688 56.8939 35.1973 54.2539 35.1973C51.134 35.1973 48.7028 32.008 48.7028 25.6209C48.7028 20.634 50.3358 17.2373 52.6575 15.5779C54.6713 14.1086 57.4834 13.8493 59.633 13.4431V12.6479C59.633 11.1873 59.7008 9.45868 59.1843 8.19682C58.7304 7.06459 57.8643 6.59787 57.1026 6.59787C55.6887 6.59787 54.4261 7.79924 54.1183 10.2884C54.0557 10.8415 53.8105 11.3861 53.4766 11.412L49.8766 10.7724C49.574 10.66 49.2401 10.2538 49.3236 9.48461C50.1532 2.25914 54.0922 0.0811157 57.6191 0.0811157C59.4243 0.0811157 61.7825 0.876264 63.2068 3.14071C65.012 5.93237 64.8398 9.65746 64.8398 13.711V23.2873C64.8398 26.1654 65.5598 27.4273 66.238 28.983C66.478 29.5362 66.5302 30.2017 66.2276 30.6165C65.4711 31.6623 64.125 33.607 63.3842 34.696L63.3738 34.6787Z" fill="#221F1F"/>
<path d="M11.0026 19.7005V18.3695C8.32091 18.3695 5.48793 19.3202 5.48793 24.5579C5.48793 27.2112 6.31747 29.009 7.74179 29.009C8.78525 29.009 9.71914 27.9459 10.3087 26.2173C11.0391 24.0911 11.0026 22.0946 11.0026 19.7005ZM14.7434 34.6787C14.4982 35.0417 14.1434 35.0676 13.8669 34.8256C12.6356 33.1316 12.4165 32.3451 11.7382 30.7289C9.70349 34.1688 8.26352 35.1973 5.62357 35.1973C2.50364 35.1973 0.0723877 32.008 0.0723877 25.6209C0.0723877 20.634 1.7054 17.2373 4.02709 15.5779C6.04096 14.1086 8.85307 13.8493 11.0026 13.4431V12.6479C11.0026 11.1873 11.0704 9.45868 10.5539 8.19682C10.1 7.06459 9.23394 6.59787 8.47221 6.59787C7.05833 6.59787 5.79574 7.79924 5.48793 10.2884C5.42532 10.8415 5.18011 11.3861 4.8462 11.412L1.24628 10.7724C0.943673 10.66 0.609767 10.2538 0.693243 9.48461C1.52279 2.25914 5.46184 0.0811157 8.98872 0.0811157C10.7939 0.0811157 13.1521 0.876264 14.5764 3.14071C16.3816 5.93237 16.2094 9.65746 16.2094 13.711V23.2873C16.2094 26.1654 16.9294 27.4273 17.6077 28.983C17.8477 29.5362 17.8998 30.2017 17.5972 30.6165C16.8407 31.6623 15.4947 33.607 14.7538 34.696L14.7434 34.6787Z" fill="#221F1F"/>
</g>
<defs>
<clipPath id="clip0_9_16">
<rect width="120" height="60" fill="white"/>
</clipPath>
</defs>
</svg>
