<svg width="129" height="60" viewBox="0 0 129 60" fill="none" xmlns="http://www.w3.org/2000/svg">
<mask id="mask0_16_2" style="mask-type:luminance" maskUnits="userSpaceOnUse" x="0" y="0" width="129" height="38">
<path d="M129 0H0V38H129V0Z" fill="white"/>
</mask>
<g mask="url(#mask0_16_2)">
<path d="M80.0114 29.6869C72.5239 35.0731 61.6712 37.9469 52.3274 37.9469C39.2258 37.9469 27.4309 33.2174 18.5076 25.3516C17.8066 24.733 18.4347 23.89 19.276 24.3717C28.906 29.8401 40.813 33.1299 53.1126 33.1299C61.4076 33.1299 70.5328 31.4549 78.9233 27.979C80.1908 27.4535 81.2508 28.7891 80.0114 29.6869Z" fill="#FF9900"/>
<path d="M83.124 26.2109C82.1706 25.0175 76.7975 25.6471 74.3858 25.9262C73.6511 26.0138 73.539 25.3898 74.2007 24.9409C78.4801 22.0015 85.502 22.8499 86.3209 23.8352C87.1397 24.8259 86.1077 31.6956 82.0864 34.9745C81.4694 35.4781 80.8806 35.2099 81.1553 34.542C82.0583 32.3416 84.0831 27.4096 83.124 26.2109Z" fill="#FF9900"/>
<path d="M74.5542 4.18954V1.3322C74.5542 0.899762 74.8908 0.60965 75.2945 0.60965H88.4018C88.8224 0.60965 89.1589 0.90524 89.1589 1.3322V3.779C89.1533 4.18954 88.8 4.72598 88.1718 5.57443L81.3798 15.0387C83.9037 14.9785 86.5677 15.3452 88.8561 16.6042C89.3721 16.8889 89.5123 17.3049 89.5515 17.7154V20.7644C89.5515 21.1804 89.0804 21.6675 88.5869 21.4157C84.5543 19.3521 79.1981 19.1277 74.7393 21.4376C74.285 21.6785 73.8082 21.1968 73.8082 20.7808V17.8852C73.8082 17.4198 73.8138 16.6261 74.2906 15.92L82.1594 4.90662H75.3113C74.8908 4.90662 74.5542 4.61651 74.5542 4.18954Z" fill="#221F1F"/>
<path d="M26.741 22.0179H22.7533C22.3719 21.9905 22.0691 21.7114 22.041 21.3556V1.38152C22.041 0.98192 22.3831 0.664436 22.8094 0.664436H26.5279C26.9149 0.680846 27.2234 0.97097 27.2514 1.33225V3.94327H27.3243C28.2946 1.41983 30.1174 0.24295 32.574 0.24295C35.0697 0.24295 36.6289 1.41983 37.7506 3.94327C38.7153 1.41983 40.9082 0.24295 43.2583 0.24295C44.9296 0.24295 46.7581 0.916231 47.8741 2.42702C49.1361 4.10748 48.8781 6.54879 48.8781 8.68908L48.8725 21.2954C48.8725 21.695 48.5303 22.0179 48.1041 22.0179H44.122C43.7238 21.9905 43.4041 21.6786 43.4041 21.2954V10.709C43.4041 9.866 43.4826 7.76403 43.2919 6.96483C42.9947 5.62375 42.1029 5.24605 40.9476 5.24605C39.9829 5.24605 38.9733 5.87554 38.5639 6.88275C38.1544 7.88994 38.1938 9.57587 38.1938 10.709V21.2954C38.1938 21.695 37.8516 22.0179 37.4253 22.0179H33.4432C33.0395 21.9905 32.7253 21.6786 32.7253 21.2954L32.7197 10.709C32.7197 8.48109 33.0956 5.20226 30.2632 5.20226C27.3972 5.20226 27.5093 8.39895 27.5093 10.709V21.2954C27.5093 21.695 27.1673 22.0179 26.741 22.0179Z" fill="#221F1F"/>
<path d="M100.443 0.24295C106.36 0.24295 109.563 5.20226 109.563 11.5081C109.563 17.6005 106.024 22.4339 100.443 22.4339C94.6329 22.4339 91.4696 17.4746 91.4696 11.2947C91.4696 5.07636 94.6721 0.24295 100.443 0.24295ZM100.477 4.32097C97.5381 4.32097 97.353 8.22928 97.353 10.6651C97.353 13.1065 97.3137 18.3176 100.443 18.3176C103.534 18.3176 103.679 14.1137 103.679 11.5519C103.679 9.86601 103.607 7.85163 103.085 6.25324C102.636 4.86288 101.745 4.32097 100.477 4.32097Z" fill="#221F1F"/>
<path d="M117.235 22.0179H113.264C112.866 21.9905 112.547 21.6786 112.547 21.2954L112.541 1.31583C112.575 0.949075 112.905 0.664436 113.309 0.664436H117.005C117.353 0.680846 117.639 0.910759 117.718 1.22277V4.27717H117.791C118.907 1.54573 120.472 0.24295 123.225 0.24295C125.015 0.24295 126.758 0.872442 127.881 2.5967C128.924 4.19507 128.924 6.88275 128.924 8.81499V21.3884C128.878 21.7387 128.547 22.0179 128.155 22.0179H124.156C123.791 21.9905 123.488 21.7278 123.45 21.3884V10.5392C123.45 8.35519 123.708 5.15846 120.953 5.15846C119.984 5.15846 119.092 5.79344 118.649 6.75684C118.088 7.97747 118.014 9.19271 118.014 10.5392V21.2954C118.009 21.695 117.662 22.0179 117.235 22.0179Z" fill="#221F1F"/>
<path d="M64.1054 12.477V11.634C61.2226 11.634 58.1771 12.2361 58.1771 15.5533C58.1771 17.2337 59.0688 18.3724 60.6001 18.3724C61.7217 18.3724 62.7257 17.6991 63.3595 16.6043C64.1447 15.2577 64.1054 13.9932 64.1054 12.477ZM68.1268 21.9632C67.8631 22.1931 67.4818 22.2095 67.1846 22.0562C65.8609 20.9833 65.6253 20.4852 64.8962 19.4616C62.7089 21.6402 61.1609 22.2916 58.3229 22.2916C54.969 22.2916 52.3555 20.2717 52.3555 16.2266C52.3555 13.0682 54.1109 10.9169 56.6068 9.86599C58.7716 8.93543 61.7946 8.77121 64.1054 8.51395V8.01032C64.1054 7.08528 64.1783 5.99048 63.6231 5.19131C63.1351 4.47423 62.2041 4.17864 61.3853 4.17864C59.8653 4.17864 58.508 4.93951 58.1771 6.51597C58.1098 6.86627 57.8462 7.21118 57.4873 7.22759L53.6173 6.82251C53.292 6.75132 52.9331 6.49406 53.0228 6.00691C53.9146 1.43078 58.1491 0.0513611 61.9405 0.0513611C63.8811 0.0513611 66.4161 0.554955 67.9473 1.9891C69.8879 3.75715 69.7027 6.11638 69.7027 8.68362V14.7486C69.7027 16.5714 70.4767 17.3706 71.2058 18.3559C71.4638 18.7062 71.5199 19.1277 71.1946 19.3904C70.3814 20.0528 68.9343 21.2844 68.138 21.9741L68.1268 21.9632Z" fill="#221F1F"/>
<path d="M11.8277 12.477V11.634C8.94492 11.634 5.89946 12.2361 5.89946 15.5533C5.89946 17.2337 6.79122 18.3724 8.32236 18.3724C9.44408 18.3724 10.448 17.6991 11.0818 16.6043C11.867 15.2577 11.8277 13.9932 11.8277 12.477ZM15.8491 21.9632C15.5855 22.1931 15.2041 22.2095 14.9069 22.0562C13.5832 20.9833 13.3477 20.4852 12.6185 19.4616C10.4312 21.6402 8.88322 22.2916 6.04528 22.2916C2.69135 22.2916 0.0777588 20.2717 0.0777588 16.2266C0.0777588 13.0682 1.83325 10.9169 4.32906 9.86599C6.49397 8.93543 9.51699 8.77121 11.8277 8.51395V8.01032C11.8277 7.08528 11.9006 5.99048 11.3454 5.19131C10.8574 4.47423 9.92642 4.17864 9.10757 4.17864C7.58764 4.17864 6.23036 4.93951 5.89946 6.51597C5.83216 6.86627 5.56856 7.21118 5.20961 7.22759L1.33969 6.82251C1.01439 6.75132 0.655441 6.49406 0.745178 6.00691C1.63694 1.43078 5.87142 0.0513611 9.66281 0.0513611C11.6034 0.0513611 14.1384 0.554955 15.6696 1.9891C17.6102 3.75715 17.425 6.11638 17.425 8.68362V14.7486C17.425 16.5714 18.199 17.3706 18.9282 18.3559C19.1862 18.7062 19.2422 19.1277 18.9169 19.3904C18.1037 20.0528 16.6567 21.2844 15.8603 21.9741L15.8491 21.9632Z" fill="#221F1F"/>
</g>
</svg>
