<svg width="100px" height="40px" viewBox="0 0 116 93" fill="none" xmlns="http://www.w3.org/2000/svg">
<g clip-path="url(#clip0_509_2007)">
<path d="M73.605 25.6104H77.1448L87.2292 15.564L87.7252 11.3013C68.9615 -5.19741 40.3177 -3.41966 23.7567 15.2733C19.1521 20.4661 15.8117 26.6422 13.9932 33.3269C15.1164 32.8668 16.3611 32.7941 17.5329 33.1138L37.6969 29.8005C37.6969 29.8005 38.7228 28.1099 39.2528 28.2165C48.2238 18.4026 63.3212 17.2594 73.678 25.6104H73.605Z" fill="#EA4335"/>
<path d="M101.593 33.3267C99.2734 24.8255 94.5181 17.1817 87.9005 11.335L73.7512 25.431C79.727 30.2944 83.1306 37.6234 82.9847 45.3108V47.8151C89.9427 47.8151 95.5781 53.4342 95.5781 60.3611C95.5781 67.2929 89.9378 72.9071 82.9847 72.9071H57.7931L55.2793 75.4453V90.4956L57.7931 93H82.9847C97.4258 93.1114 110.238 83.7867 114.526 70.0491C118.805 56.3067 113.554 41.3872 101.593 33.3267Z" fill="#4285F4"/>
<path d="M32.567 92.8598H57.7586V72.7717H32.567C30.7728 72.7717 28.998 72.389 27.3643 71.6431L23.8245 72.733L13.672 82.7794L12.7871 86.3059C18.4809 90.588 25.4291 92.8889 32.567 92.8598Z" fill="#34A853"/>
<path d="M32.5673 27.6887C18.5736 27.771 6.17962 36.6985 1.71602 49.9081C-2.74758 63.1177 1.70143 77.6981 12.7923 86.1945L27.4036 71.6383C21.0631 68.7852 18.2479 61.3545 21.1118 55.0379C23.9757 48.7213 31.4344 45.9166 37.7749 48.7698C40.5658 50.0292 42.8025 52.2574 44.0667 55.0379L58.6779 40.4817C52.459 32.3873 42.7976 27.6547 32.5673 27.6887Z" fill="#FBBC05"/>
</g>
<defs>
<clipPath id="clip0_509_2007">
<rect width="116" height="93" fill="white"/>
</clipPath>
</defs>
</svg>
